<?xml version="1.0" standalone="no"?>
<!DOCTYPE svg PUBLIC "-//W3C//DTD SVG 20010904//EN"
 "http://www.w3.org/TR/2001/REC-SVG-20010904/DTD/svg10.dtd">
<svg version="1.0" xmlns="http://www.w3.org/2000/svg"
 width="1280.000000pt" height="1220.000000pt" viewBox="0 0 1280.000000 1220.000000"
 preserveAspectRatio="xMidYMid meet">
<metadata>
Created by potrace 1.15, written by Peter Selinger 2001-2017
</metadata>
<g transform="translate(0.000000,1220.000000) scale(0.100000,-0.100000)"
fill="#000000" stroke="none">
<path d="M5385 10204 c-533 -1097 -974 -1999 -980 -2003 -5 -5 -179 -33 -385
-64 -206 -31 -526 -79 -710 -107 -184 -28 -452 -68 -595 -90 -143 -22 -530
-80 -860 -130 -330 -50 -717 -108 -860 -130 -1123 -169 -995 -147 -995 -169 0
-10 102 -116 228 -237 125 -120 845 -814 1600 -1542 754 -727 1372 -1325 1372
-1328 0 -7 -87 -531 -295 -1789 -97 -583 -232 -1400 -300 -1815 -69 -415 -127
-766 -130 -779 -5 -21 -3 -23 22 -19 15 2 907 473 1981 1046 l1953 1042 1986
-1030 c1093 -567 1990 -1029 1993 -1028 4 2 -4 59 -16 128 -20 111 -85 474
-325 1830 -38 217 -87 494 -109 615 -22 121 -74 414 -115 650 -42 237 -107
600 -144 808 l-67 378 355 353 c196 194 907 896 1581 1560 674 664 1226 1216
1228 1226 2 13 -4 21 -20 25 -13 2 -930 131 -2038 285 -2361 329 -2351 327
-2355 332 -2 2 -451 896 -999 1988 -726 1448 -1000 1986 -1013 1988 -15 2
-195 -363 -988 -1994z"/>
</g>
</svg>
