<svg id="screenshot" viewBox="-2.8284271247461903 -2.8284271247461903 405.65685424949237 205.65685424949237" width="405.65685424949237" height="205.65685424949237" version="1.1" xmlns="http://www.w3.org/2000/svg" xmlns:xlink="http://www.w3.org/1999/xlink" style="-webkit-print-color-adjust: exact;"><g id="shape-81497398-b803-11ec-a432-25179b898222" clip-path="url(#frame-clip-81497398-b803-11ec-a432-25179b898222-36081ac0-b809-11ec-90f9-411c57071333)"><defs><clipPath id="frame-clip-81497398-b803-11ec-a432-25179b898222-36081ac0-b809-11ec-90f9-411c57071333" class="frame-clip"><rect x="0" y="0" width="400" height="200"/></clipPath></defs><rect x="0" y="0" width="400" height="200" class="frame-background" style="fill: rgb(255, 255, 255); fill-opacity: 1; stroke-width: 4; stroke: rgb(0, 0, 0); stroke-opacity: 1; opacity: 1;"/><g id="shape-20794080-b804-11ec-a432-25179b898222"><path d="M243,154L311,154L311,187L278.36781609195396,187L243,187L243,154Z" style="fill: rgb(255, 255, 255); fill-opacity: 1; stroke-width: 1; stroke: rgb(0, 0, 0); stroke-opacity: 1;"/></g><g id="shape-4b9e2c80-b804-11ec-a432-25179b898222"><g><path d="M145 713 c-70 -14 -105 -51 -105 -112 0 -42 44 -74 127 -95 95 -24
113 -37 113 -86 0 -52 -26 -70 -103 -70 -39 0 -71 7 -98 21 -47 24 -65 17 -29
-11 33 -26 119 -44 164 -36 70 13 117 76 96 130 -13 34 -44 53 -131 77 -88 24
-109 41 -109 85 0 65 89 95 177 59 42 -18 43 -18 43 -5 0 23 -98 52 -145 43z
M390 700 c0 -11 7 -20 15 -20 8 0 15 9 15 20 0 11 -7 20 -15 20 -8 0 -15 -9
-15 -20z M1320 700 c0 -11 7 -20 15 -20 8 0 15 9 15 20 0 11 -7 20 -15 20 -8
0 -15 -9 -15 -20z M390 465 c0 -122 2 -145 15 -145 13 0 15 23 15 145 0 122
-2 145 -15 145 -13 0 -15 -23 -15 -145z M545 579 c-66 -59 -71 -155 -11 -215
54 -54 107 -57 165 -8 l31 26 0 -54 c0 -70 -27 -99 -97 -105 -40 -4 -55 0 -86
21 -31 21 -38 23 -35 10 4 -23 66 -54 106 -54 45 0 95 22 120 55 21 26 22 39
22 191 0 103 -4 164 -10 164 -5 0 -10 -13 -10 -30 0 -16 -3 -30 -6 -30 -4 0
-22 14 -41 30 -47 42 -99 41 -148 -1z m135 -4 c41 -21 50 -43 50 -119 0 -58
-3 -67 -27 -85 -36 -29 -66 -35 -107 -21 -90 30 -103 179 -18 224 35 20 66 20
102 1z M850 465 c0 -122 2 -145 15 -145 12 0 15 17 15 95 0 94 1 96 33 130 44
48 87 56 121 22 25 -25 26 -31 26 -137 0 -91 3 -110 15 -110 12 0 15 18 15
104 0 147 -18 186 -85 186 -32 0 -61 -14 -97 -48 l-28 -26 0 37 c0 26 -4 37
-15 37 -13 0 -15 -23 -15 -145z M1320 465 c0 -122 2 -145 15 -145 13 0 15 23
15 145 0 122 -2 145 -15 145 -13 0 -15 -23 -15 -145z M1450 465 c0 -122 2
-145 15 -145 12 0 15 18 15 103 0 95 2 105 23 124 51 47 95 55 127 23 18 -18
20 -33 20 -135 0 -98 2 -115 16 -115 14 0 15 16 12 126 -3 118 -4 127 -27 145
-41 34 -97 23 -153 -29 l-28 -26 0 37 c0 20 -4 37 -10 37 -6 0 -10 -55 -10
-145z" transform="translate(254.5, 162) scale(0.25, 0.25) translate(0.000000,84.000000) scale(0.100000,-0.100000)" fill="#000000" stroke="none"/></g></g><g id="shape-5bdfb410-b804-11ec-a432-25179b898222"><path d="M14,154L221,154L221,187L121.6637931034486,187L14,187L14,154Z" style="fill: rgb(255, 255, 255); fill-opacity: 1; stroke-width: 1; stroke: rgb(0, 0, 0); stroke-opacity: 1;"/></g><g id="shape-e0293660-b804-11ec-a432-25179b898222"><g><path d="M180 710 c-50 -9 -78 -27 -100 -63 -42 -68 -18 -105 88 -136 85 -26
107 -47 98 -96 -10 -54 -53 -77 -133 -73 -46 3 -71 10 -94 27 -17 13 -30 18
-27 10 11 -33 59 -54 121 -54 73 1 120 22 142 65 35 67 6 106 -103 139 -55 16
-75 28 -84 45 -15 35 2 77 43 104 28 20 44 23 86 20 30 -3 61 -12 71 -21 10
-10 22 -14 25 -10 10 9 -30 34 -67 42 -17 4 -47 4 -66 1z M1516 703 c-18 -67
-77 -365 -73 -376 5 -13 19 35 37 126 8 39 22 70 43 95 27 32 28 34 4 13 -32
-29 -32 -30 -8 77 10 45 14 82 10 82 -4 0 -10 -8 -13 -17z M1965 698 c-3 -13
-21 -96 -40 -186 -34 -158 -44 -231 -23 -164 6 17 15 32 20 32 5 0 6 5 3 10
-14 23 17 125 48 160 27 29 27 31 5 11 -33 -29 -33 -30 -9 77 10 45 14 82 10
82 -5 0 -11 -10 -14 -22z M441 594 c-45 -24 -83 -84 -88 -142 -8 -85 51 -143
131 -128 35 7 114 65 89 66 -7 0 -16 -6 -20 -14 -12 -21 -64 -46 -95 -46 -41
0 -78 38 -85 88 l-6 42 65 0 c116 0 168 23 168 74 0 62 -88 95 -159 60z m117
-10 c16 -11 22 -25 22 -50 0 -30 -4 -37 -35 -50 -37 -15 -160 -20 -169 -6 -10
16 29 77 63 99 39 27 87 30 119 7z M741 593 c-48 -24 -91 -95 -91 -150 0 -105
75 -154 158 -103 17 11 32 23 32 26 0 4 -6 1 -14 -5 -24 -20 -76 -31 -101 -21
-82 31 -74 179 12 235 14 10 44 18 66 19 31 1 44 -5 63 -27 26 -30 29 -60 13
-122 -14 -55 -20 -115 -11 -115 4 0 18 55 31 123 13 67 26 130 29 140 2 9 -1
17 -7 17 -6 0 -11 -9 -11 -19 0 -46 -10 -49 -44 -15 -39 39 -72 43 -125 17z
M1026 593 c-15 -49 -56 -266 -52 -271 3 -2 8 1 11 9 9 27 45 195 50 237 5 43
1 56 -9 25z M1113 595 c-43 -19 -42 -25 2 -11 19 6 35 14 35 18 0 10 2 10 -37
-7z M1260 599 c-57 -23 -110 -101 -110 -161 0 -39 30 -92 61 -108 30 -17 91
-7 129 20 17 12 29 25 26 28 -3 3 -14 -2 -25 -12 -49 -44 -130 -37 -156 15
-47 89 24 210 125 213 33 0 46 -4 61 -23 20 -25 33 -24 24 1 -13 33 -84 47
-135 27z M1583 600 c-33 -13 -28 -20 6 -10 18 5 37 4 52 -4 31 -15 35 -62 15
-163 -17 -79 -20 -110 -10 -100 10 10 43 171 44 213 0 64 -43 90 -107 64z
M2024 595 c-18 -14 -17 -14 9 -5 65 23 117 -22 117 -100 0 -52 -25 -99 -72
-133 -31 -23 -100 -26 -126 -6 -10 8 -7 4 6 -8 70 -67 212 35 212 152 0 43
-23 90 -49 105 -28 15 -74 12 -97 -5z M2313 590 c-40 -24 -80 -83 -88 -131 -8
-45 14 -101 49 -124 28 -18 89 -16 109 4 7 7 0 8 -22 1 -85 -24 -143 60 -106
156 31 81 128 126 182 84 11 -8 8 -5 -5 8 -29 28 -76 29 -119 2z M2484 575
c-3 -19 -10 -33 -14 -30 -5 3 -6 -4 -3 -14 9 -35 -17 -125 -45 -156 -19 -20
-20 -24 -4 -11 22 19 22 19 22 -7 0 -14 5 -29 10 -32 6 -4 10 7 10 25 0 26 31
191 46 243 3 9 1 17 -5 17 -5 0 -13 -16 -17 -35z M2607 603 c-10 -17 -58 -264
-54 -276 5 -13 19 35 37 126 14 68 45 109 100 131 43 17 55 32 18 21 -13 -4
-41 -21 -62 -38 l-39 -30 7 36 c6 34 3 47 -7 30z" transform="translate(54, 162) scale(0.25, 0.25) translate(0.000000,84.000000) scale(0.100000,-0.100000)" fill="#000000" stroke="none"/></g></g><g id="shape-72638ef0-b804-11ec-a432-25179b898222"><path d="M320,154L388,154L388,187L355.36781609195396,187L320,187L320,154Z" style="fill: rgb(255, 255, 255); fill-opacity: 1; stroke-width: 1; stroke: rgb(0, 0, 0); stroke-opacity: 1;"/></g><g id="shape-3b984e60-b804-11ec-a432-25179b898222"><g><path d="M1080 540 c0 -11 7 -20 15 -20 8 0 15 9 15 20 0 11 -7 20 -15 20 -8
0 -15 -9 -15 -20z M50 355 c0 -167 2 -195 15 -195 12 0 15 15 15 75 l0 75 68
0 67 -1 45 -74 c25 -41 51 -75 58 -75 18 0 16 5 -34 83 -30 47 -42 73 -34 75
7 3 26 16 42 31 37 34 46 86 23 135 -26 54 -57 66 -170 66 l-95 0 0 -195z
m221 146 c36 -37 40 -94 8 -135 -19 -25 -25 -26 -110 -26 l-89 0 0 95 0 95 81
0 c76 0 82 -2 110 -29z M1480 500 c0 -43 -3 -50 -20 -50 -11 0 -20 -4 -20 -10
0 -5 9 -10 20 -10 19 0 20 -7 20 -104 0 -58 4 -116 10 -130 12 -32 52 -43 88
-25 l27 14 -40 3 c-22 2 -43 9 -47 15 -4 7 -8 60 -8 120 l0 107 35 0 c19 0 35
5 35 10 0 6 -16 10 -35 10 l-35 0 0 50 c0 38 -4 50 -15 50 -11 0 -15 -12 -15
-50z M449 425 c-37 -24 -43 -35 -60 -89 -20 -67 38 -159 109 -172 42 -8 103 9
127 36 28 31 10 36 -25 6 -59 -49 -145 -28 -174 44 -9 22 -16 43 -16 45 0 3
56 5 125 5 l125 0 0 28 c0 15 -9 40 -19 56 -45 68 -127 86 -192 41z m139 -11
c24 -17 52 -64 52 -89 0 -13 -18 -15 -115 -15 -72 0 -115 4 -115 10 0 24 30
79 51 94 30 20 98 21 127 0z M760 412 c-49 -49 -60 -102 -32 -165 25 -56 63
-82 118 -82 33 0 49 6 71 28 16 15 32 27 36 27 12 0 8 -69 -7 -104 -25 -60
-123 -74 -189 -26 -18 14 -28 17 -25 9 8 -26 70 -59 109 -59 50 0 84 14 114
46 25 26 25 30 25 195 0 106 -4 169 -10 169 -5 0 -10 -13 -10 -30 0 -31 -13
-39 -27 -17 -16 26 -58 47 -96 47 -32 0 -46 -7 -77 -38z m140 3 c43 -22 60
-53 60 -110 0 -58 -17 -88 -62 -111 -54 -28 -113 -3 -147 63 -36 70 21 171 97
173 13 0 36 -7 52 -15z M1080 305 c0 -122 2 -145 15 -145 13 0 15 23 15 145 0
122 -2 145 -15 145 -13 0 -15 -23 -15 -145z M1219 421 c-16 -16 -29 -38 -29
-48 0 -29 39 -59 99 -77 65 -19 81 -31 81 -62 0 -49 -79 -70 -146 -38 -43 21
-55 12 -18 -13 19 -12 47 -18 87 -18 52 0 62 3 83 28 47 54 23 94 -72 122 -33
9 -65 22 -71 27 -20 16 -16 66 6 78 29 15 93 12 118 -5 13 -9 24 -11 28 -6 9
16 -50 41 -95 41 -33 0 -48 -6 -71 -29z M1699 425 c-37 -24 -43 -35 -60 -89
-20 -67 38 -159 109 -172 42 -8 103 9 127 36 28 31 10 36 -25 6 -59 -49 -145
-28 -174 44 -9 22 -16 43 -16 45 0 3 56 5 125 5 l125 0 0 28 c0 15 -9 40 -19
56 -45 68 -127 86 -192 41z m139 -11 c24 -17 52 -64 52 -89 0 -13 -18 -15
-115 -15 -72 0 -115 4 -115 10 0 24 30 79 51 94 30 20 98 21 127 0z M1980 305
c0 -119 3 -145 14 -145 12 0 15 22 18 108 4 139 0 182 -18 182 -11 0 -14 -28
-14 -145z M2066 431 c-16 -11 -33 -27 -38 -36 -7 -12 -2 -11 24 5 18 11 41 20
51 20 9 0 17 7 17 15 0 20 -19 19 -54 -4z" transform="translate(326.5, 162) scale(0.25, 0.25) translate(0.000000,68.000000) scale(0.100000,-0.100000)" fill="#000000" stroke="none"/></g></g><g id="shape-104de390-b805-11ec-a432-25179b898222" height="24px" width="24px"><g id="shape-10502d80-b805-11ec-a432-25179b898222"><path d="M246.30115445859883,33.82543789808915L246.30115445859883,126.42774681528658L153.69884554140128,126.42774681528658L153.69884554140128,33.82543789808915L246.30115445859883,33.82543789808915ZM246.30115445859883,20.596536624203793L153.69884554140128,20.596536624203793C146.42294984076443,20.596536624203793,140.46994426751587,26.549542197452183,140.46994426751587,33.82543789808915L140.46994426751587,126.42774681528658C140.46994426751587,133.70364251592355,146.42294984076443,139.65664808917194,153.69884554140128,139.65664808917194L246.30115445859883,139.65664808917194C253.57705015923557,139.65664808917194,259.530055732484,133.70364251592355,259.530055732484,126.42774681528658L259.530055732484,33.82543789808915C259.530055732484,26.549542197452183,253.57705015923557,20.596536624203793,246.30115445859883,20.596536624203793ZZM214.1549243630575,79.20056926751607L194.31157245222948,104.79849323248402L180.15664808917188,87.66706608280236L160.31329617834388,113.19884554140123L239.686703821656,113.19884554140123L214.1549243630575,79.20056926751607ZZ" style="fill: rgb(205, 205, 205); fill-opacity: 1;"/></g></g><g id="shape-ac40b880-b806-11ec-a432-25179b898222" height="24px" width="24px"><g id="shape-ac4154c0-b806-11ec-a432-25179b898222"><path fill="none" d="M19.5,159.5L43.5,159.5L43.5,183.5L19.5,183.5L19.5,159.5ZZ"/></g><g id="shape-ac421810-b806-11ec-a432-25179b898222"><path d="M35,173.5L34.210000000000036,173.5L33.92999999999995,173.23000000000002C34.90999999999997,172.08999999999997,35.5,170.61,35.5,169C35.5,165.41000000000003,32.59000000000003,162.5,29,162.5C25.409999999999968,162.5,22.5,165.41000000000003,22.5,169C22.5,172.58999999999997,25.409999999999968,175.5,29,175.5C30.610000000000014,175.5,32.09000000000003,174.91000000000003,33.23000000000002,173.93L33.5,174.20999999999998L33.5,175L38.5,179.99L39.99000000000001,178.5L35,173.5ZZM29,173.5C26.50999999999999,173.5,24.5,171.49,24.5,169C24.5,166.51,26.50999999999999,164.5,29,164.5C31.49000000000001,164.5,33.5,166.51,33.5,169C33.5,171.49,31.49000000000001,173.5,29,173.5ZZ" style="fill: rgb(0, 0, 0);"/></g></g></g></svg>