<svg id="screenshot" viewBox="-2.8284271247461903 -2.828427124746105 405.65685424949237 605.6568542494923" width="405.65685424949237" height="605.6568542494923" version="1.1" xmlns="http://www.w3.org/2000/svg" xmlns:xlink="http://www.w3.org/1999/xlink" style="-webkit-print-color-adjust: exact;"><g id="shape-76496690-b802-11ec-a432-25179b898222" clip-path="url(#frame-clip-76496690-b802-11ec-a432-25179b898222-22d1bd30-b809-11ec-9e48-37f5901bca52)"><defs><clipPath id="frame-clip-76496690-b802-11ec-a432-25179b898222-22d1bd30-b809-11ec-9e48-37f5901bca52" class="frame-clip"><rect x="0" y="0" width="400" height="600"/></clipPath></defs><rect x="0" y="0" width="400" height="600" class="frame-background" style="fill: rgb(255, 255, 255); fill-opacity: 1; stroke-width: 4; stroke: rgb(0, 0, 0); stroke-opacity: 1;"/><g id="shape-b55848b0-b802-11ec-a432-25179b898222"><path d="M26,27L374,27L374,149L207,149L26,149L26,27Z" style="fill: rgb(255, 255, 255); fill-opacity: 1; stroke-width: 1; stroke: rgb(0, 0, 0); stroke-opacity: 1;"/></g><g id="shape-ebf91de0-b802-11ec-a432-25179b898222"><path d="M26,178L374,178L374,505L207,505L26,505L26,178Z" style="fill: rgb(255, 255, 255); fill-opacity: 1; stroke-width: 1; stroke: rgb(0, 0, 0); stroke-opacity: 1;"/></g><g id="shape-2f0dd0d0-b803-11ec-a432-25179b898222"><g><path d="M1470 730 c0 -23 4 -30 20 -30 16 0 20 7 20 30 0 23 -4 30 -20 30
-16 0 -20 -7 -20 -30z M1240 675 c0 -63 -1 -65 -25 -65 -16 0 -25 -6 -25 -15
0 -9 9 -15 25 -15 l25 0 0 -149 0 -150 26 -20 c29 -23 59 -26 99 -11 39 15 26
35 -19 32 -62 -6 -66 3 -66 159 l0 139 45 0 c33 0 45 4 45 15 0 11 -12 15 -45
15 l-45 0 0 65 c0 58 -2 65 -20 65 -18 0 -20 -7 -20 -65z M125 605 c-22 -8
-41 -15 -42 -15 -9 0 -33 -64 -33 -85 0 -39 31 -62 125 -90 90 -28 112 -47
101 -91 -4 -13 -18 -31 -31 -40 -35 -23 -131 -15 -172 14 -25 18 -32 19 -36 7
-10 -23 59 -58 124 -63 74 -6 126 18 146 67 13 31 13 39 0 67 -16 32 -21 35
-157 81 -52 17 -55 20 -58 54 -4 51 25 74 93 73 32 0 63 -7 78 -17 32 -21 37
-21 37 -2 0 38 -112 63 -175 40z M507 606 c-50 -18 -85 -51 -108 -101 -70
-152 83 -315 235 -251 37 15 76 50 76 66 0 16 -30 12 -37 -5 -9 -25 -59 -45
-112 -45 -42 0 -56 5 -85 31 -19 16 -38 39 -41 50 -3 10 -8 28 -11 39 -5 19
-1 20 157 20 l162 0 -5 45 c-13 113 -128 188 -231 151z m123 -35 c37 -19 64
-57 75 -103 l7 -28 -147 0 -147 0 6 31 c19 96 121 146 206 100z M927 605
c-126 -45 -164 -199 -74 -302 38 -43 81 -63 138 -63 67 0 168 70 125 86 -7 3
-26 -6 -41 -20 -75 -70 -197 -29 -225 76 -17 62 -4 117 40 160 33 33 44 38 84
38 48 0 99 -20 113 -44 5 -8 15 -11 28 -6 43 15 -70 91 -135 90 -8 -1 -32 -7
-53 -15z M1726 605 c-106 -38 -155 -156 -107 -261 57 -126 231 -139 307 -24
70 106 17 256 -103 289 -47 13 -49 13 -97 -4z m138 -55 c108 -95 47 -280 -91
-280 -38 0 -89 33 -113 72 -24 40 -27 116 -5 157 43 85 143 109 209 51z M2196
606 c-21 -8 -54 -29 -72 -47 l-34 -33 0 42 c0 35 -3 42 -20 42 -19 0 -20 -7
-20 -185 0 -178 1 -185 20 -185 19 0 20 7 20 124 0 120 1 126 26 156 73 86
180 80 198 -12 3 -17 6 -84 6 -149 0 -112 1 -119 20 -119 19 0 20 7 20 123 0
67 -5 140 -10 161 -17 76 -79 109 -154 82z M1470 425 c0 -178 1 -185 20 -185
19 0 20 7 20 185 0 178 -1 185 -20 185 -19 0 -20 -7 -20 -185z" transform="translate(35, 189) scale(0.25, 0.25) translate(0.000000,92.000000) scale(0.100000,-0.100000)" fill="#000000" stroke="none"/></g></g><g id="shape-07121140-b803-11ec-a432-25179b898222"><path d="M49,313L351,313L351,371L206.07471264367814,371L49,371L49,313Z" style="fill: rgb(255, 255, 255); fill-opacity: 1; stroke-width: 1; stroke: rgb(0, 0, 0); stroke-opacity: 1;"/></g><g id="shape-56b52ed0-b803-11ec-a432-25179b898222"><g><path d="M840 675 c0 -16 6 -25 15 -25 9 0 15 9 15 25 0 16 -6 25 -15 25 -9 0
-15 -9 -15 -25z M1330 490 c0 -197 1 -211 20 -230 21 -21 51 -24 85 -10 22 9
10 17 -35 22 l-25 3 -3 213 c-2 204 -3 212 -22 212 -19 0 -20 -7 -20 -210z
M640 625 c0 -52 -1 -55 -25 -55 -16 0 -25 -6 -25 -15 0 -9 9 -15 25 -15 l25 0
0 -130 c0 -117 2 -132 20 -150 22 -22 60 -26 91 -10 30 17 22 29 -14 23 -58
-9 -67 10 -67 148 l0 119 40 0 c29 0 40 4 40 15 0 11 -11 15 -40 15 l-40 0 0
55 c0 42 -3 55 -15 55 -12 0 -15 -13 -15 -55z M88 553 c-21 -8 -38 -19 -38
-24 0 -12 8 -11 57 7 82 31 153 -4 153 -77 l0 -38 -54 6 c-30 3 -71 2 -91 -1
-95 -18 -118 -128 -35 -171 52 -27 119 -14 172 33 16 14 18 13 18 -6 0 -12 8
-26 18 -31 17 -9 18 -4 15 82 -6 166 -12 185 -63 220 -31 21 -102 21 -152 0z
m150 -149 c20 -6 23 -12 20 -52 -4 -60 -38 -87 -110 -87 -40 0 -53 4 -69 24
-48 59 -5 121 85 121 28 0 61 -3 74 -6z M400 405 c0 -158 1 -165 20 -165 19 0
20 7 20 114 0 131 12 157 81 177 22 7 39 18 39 27 0 24 -52 5 -88 -33 -18 -19
-34 -35 -37 -35 -3 0 -5 18 -5 40 0 29 -4 40 -15 40 -13 0 -15 -25 -15 -165z
M840 405 c0 -140 2 -165 15 -165 13 0 15 25 15 165 0 140 -2 165 -15 165 -13
0 -15 -25 -15 -165z M1042 553 c-70 -34 -102 -142 -66 -219 45 -95 166 -123
244 -57 44 36 23 51 -25 19 -52 -35 -112 -35 -154 0 -37 30 -56 88 -47 138 9
46 57 102 95 109 38 8 99 -10 113 -32 7 -11 19 -16 30 -13 18 4 18 5 1 24 -44
49 -128 62 -191 31z M1560 547 c-76 -50 -99 -159 -50 -230 31 -45 87 -77 134
-77 41 0 114 33 123 56 10 27 -6 27 -37 1 -40 -35 -87 -43 -133 -23 -39 16
-77 67 -77 104 0 22 1 22 140 22 l140 0 0 25 c0 40 -36 101 -73 124 -48 29
-123 28 -167 -2z m177 -41 c19 -21 33 -46 33 -61 l0 -25 -125 0 -125 0 0 24
c0 28 43 83 74 97 12 5 41 7 66 5 35 -3 51 -11 77 -40z" transform="translate(176.5, 331.9565217391305) scale(0.25, 0.25) translate(0.000000,84.000000) scale(0.100000,-0.100000)" fill="#000000" stroke="none"/></g></g><g id="shape-fdafb940-b802-11ec-a432-25179b898222"><path d="M49,218L351,218L351,276L206.07471264367814,276L49,276L49,218Z" style="fill: rgb(255, 255, 255); fill-opacity: 1; stroke-width: 1; stroke: rgb(0, 0, 0); stroke-opacity: 1;"/></g><g id="shape-4c9971e0-b803-11ec-a432-25179b898222"><g><path d="M840 675 c0 -16 6 -25 15 -25 9 0 15 9 15 25 0 16 -6 25 -15 25 -9 0
-15 -9 -15 -25z M1330 490 c0 -197 1 -211 20 -230 21 -21 51 -24 85 -10 22 9
10 17 -35 22 l-25 3 -3 213 c-2 204 -3 212 -22 212 -19 0 -20 -7 -20 -210z
M640 625 c0 -52 -1 -55 -25 -55 -16 0 -25 -6 -25 -15 0 -9 9 -15 25 -15 l25 0
0 -130 c0 -117 2 -132 20 -150 22 -22 60 -26 91 -10 30 17 22 29 -14 23 -58
-9 -67 10 -67 148 l0 119 40 0 c29 0 40 4 40 15 0 11 -11 15 -40 15 l-40 0 0
55 c0 42 -3 55 -15 55 -12 0 -15 -13 -15 -55z M88 553 c-21 -8 -38 -19 -38
-24 0 -12 8 -11 57 7 82 31 153 -4 153 -77 l0 -38 -54 6 c-30 3 -71 2 -91 -1
-95 -18 -118 -128 -35 -171 52 -27 119 -14 172 33 16 14 18 13 18 -6 0 -12 8
-26 18 -31 17 -9 18 -4 15 82 -6 166 -12 185 -63 220 -31 21 -102 21 -152 0z
m150 -149 c20 -6 23 -12 20 -52 -4 -60 -38 -87 -110 -87 -40 0 -53 4 -69 24
-48 59 -5 121 85 121 28 0 61 -3 74 -6z M400 405 c0 -158 1 -165 20 -165 19 0
20 7 20 114 0 131 12 157 81 177 22 7 39 18 39 27 0 24 -52 5 -88 -33 -18 -19
-34 -35 -37 -35 -3 0 -5 18 -5 40 0 29 -4 40 -15 40 -13 0 -15 -25 -15 -165z
M840 405 c0 -140 2 -165 15 -165 13 0 15 25 15 165 0 140 -2 165 -15 165 -13
0 -15 -25 -15 -165z M1042 553 c-70 -34 -102 -142 -66 -219 45 -95 166 -123
244 -57 44 36 23 51 -25 19 -52 -35 -112 -35 -154 0 -37 30 -56 88 -47 138 9
46 57 102 95 109 38 8 99 -10 113 -32 7 -11 19 -16 30 -13 18 4 18 5 1 24 -44
49 -128 62 -191 31z M1560 547 c-76 -50 -99 -159 -50 -230 31 -45 87 -77 134
-77 41 0 114 33 123 56 10 27 -6 27 -37 1 -40 -35 -87 -43 -133 -23 -39 16
-77 67 -77 104 0 22 1 22 140 22 l140 0 0 25 c0 40 -36 101 -73 124 -48 29
-123 28 -167 -2z m177 -41 c19 -21 33 -46 33 -61 l0 -25 -125 0 -125 0 0 24
c0 28 43 83 74 97 12 5 41 7 66 5 35 -3 51 -11 77 -40z" transform="translate(176.5, 236.9565217391305) scale(0.25, 0.25) translate(0.000000,84.000000) scale(0.100000,-0.100000)" fill="#000000" stroke="none"/></g></g><g id="shape-f307c1e0-b802-11ec-a432-25179b898222"><path d="M26,531L374,531L374,573L207,573L26,573L26,531Z" style="fill: rgb(255, 255, 255); fill-opacity: 1; stroke-width: 1; stroke: rgb(0, 0, 0); stroke-opacity: 1;"/></g><g id="shape-626f3270-b803-11ec-a432-25179b898222"><g><path d="M160 857 c-39 -20 -70 -74 -70 -123 0 -42 -1 -44 -30 -44 -20 0 -30
-5 -30 -15 0 -10 10 -15 30 -15 l30 0 0 -190 c0 -183 1 -190 20 -190 19 0 20
7 20 190 l0 190 55 0 c42 0 55 3 55 15 0 12 -13 15 -55 15 -55 0 -55 0 -55 30
0 17 6 46 14 65 16 37 42 49 96 43 47 -4 49 18 3 31 -48 14 -53 13 -83 -2z
M1280 760 l0 -70 -30 0 c-20 0 -30 -5 -30 -15 0 -10 10 -15 30 -15 l30 0 0
-165 c0 -163 0 -166 25 -190 27 -27 63 -32 114 -14 46 16 33 34 -24 34 -69 0
-75 15 -75 193 l0 142 50 0 c38 0 50 4 50 15 0 11 -12 15 -50 15 l-50 0 0 70
c0 63 -2 70 -20 70 -18 0 -20 -7 -20 -70z M403 675 c-68 -34 -105 -90 -111
-166 -10 -138 80 -236 209 -227 77 6 128 40 163 109 55 112 12 240 -99 290
-55 25 -102 23 -162 -6z m153 -31 c101 -48 114 -228 22 -297 -113 -84 -266 21
-244 168 18 115 122 176 222 129z M908 691 c-138 -45 -188 -227 -93 -338 43
-50 90 -73 149 -73 63 0 104 19 148 67 86 96 67 247 -40 318 -43 28 -119 40
-164 26z m132 -53 c55 -38 74 -71 77 -141 3 -50 0 -69 -19 -101 -30 -51 -75
-78 -133 -78 -95 0 -160 77 -153 183 9 126 133 201 228 137z M1635 688 c-214
-75 -165 -408 60 -408 72 0 165 49 165 87 0 20 -25 16 -46 -8 -86 -95 -237
-48 -269 84 l-7 27 181 0 c203 0 190 -6 169 77 -27 109 -150 177 -253 141z
m145 -44 c33 -20 66 -69 75 -111 l7 -33 -163 0 -162 0 6 35 c17 107 142 164
237 109z M1990 485 l0 -205 25 0 25 0 0 136 c0 109 3 142 17 164 18 32 80 70
112 70 14 0 21 6 21 20 0 43 -78 15 -128 -47 l-31 -38 -1 53 c0 45 -3 52 -20
52 -19 0 -20 -7 -20 -205z" transform="translate(171.5, 538) scale(0.25, 0.25) translate(0.000000,104.000000) scale(0.100000,-0.100000)" fill="#000000" stroke="none"/></g></g><g id="shape-09565bf0-b803-11ec-a432-25179b898222"><path d="M49,408L351,408L351,466L206.07471264367814,466L49,466L49,408Z" style="fill: rgb(255, 255, 255); fill-opacity: 1; stroke-width: 1; stroke: rgb(0, 0, 0); stroke-opacity: 1;"/></g><g id="shape-595b2180-b803-11ec-a432-25179b898222"><g><path d="M840 675 c0 -16 6 -25 15 -25 9 0 15 9 15 25 0 16 -6 25 -15 25 -9 0
-15 -9 -15 -25z M1330 490 c0 -197 1 -211 20 -230 21 -21 51 -24 85 -10 22 9
10 17 -35 22 l-25 3 -3 213 c-2 204 -3 212 -22 212 -19 0 -20 -7 -20 -210z
M640 625 c0 -52 -1 -55 -25 -55 -16 0 -25 -6 -25 -15 0 -9 9 -15 25 -15 l25 0
0 -130 c0 -117 2 -132 20 -150 22 -22 60 -26 91 -10 30 17 22 29 -14 23 -58
-9 -67 10 -67 148 l0 119 40 0 c29 0 40 4 40 15 0 11 -11 15 -40 15 l-40 0 0
55 c0 42 -3 55 -15 55 -12 0 -15 -13 -15 -55z M88 553 c-21 -8 -38 -19 -38
-24 0 -12 8 -11 57 7 82 31 153 -4 153 -77 l0 -38 -54 6 c-30 3 -71 2 -91 -1
-95 -18 -118 -128 -35 -171 52 -27 119 -14 172 33 16 14 18 13 18 -6 0 -12 8
-26 18 -31 17 -9 18 -4 15 82 -6 166 -12 185 -63 220 -31 21 -102 21 -152 0z
m150 -149 c20 -6 23 -12 20 -52 -4 -60 -38 -87 -110 -87 -40 0 -53 4 -69 24
-48 59 -5 121 85 121 28 0 61 -3 74 -6z M400 405 c0 -158 1 -165 20 -165 19 0
20 7 20 114 0 131 12 157 81 177 22 7 39 18 39 27 0 24 -52 5 -88 -33 -18 -19
-34 -35 -37 -35 -3 0 -5 18 -5 40 0 29 -4 40 -15 40 -13 0 -15 -25 -15 -165z
M840 405 c0 -140 2 -165 15 -165 13 0 15 25 15 165 0 140 -2 165 -15 165 -13
0 -15 -25 -15 -165z M1042 553 c-70 -34 -102 -142 -66 -219 45 -95 166 -123
244 -57 44 36 23 51 -25 19 -52 -35 -112 -35 -154 0 -37 30 -56 88 -47 138 9
46 57 102 95 109 38 8 99 -10 113 -32 7 -11 19 -16 30 -13 18 4 18 5 1 24 -44
49 -128 62 -191 31z M1560 547 c-76 -50 -99 -159 -50 -230 31 -45 87 -77 134
-77 41 0 114 33 123 56 10 27 -6 27 -37 1 -40 -35 -87 -43 -133 -23 -39 16
-77 67 -77 104 0 22 1 22 140 22 l140 0 0 25 c0 40 -36 101 -73 124 -48 29
-123 28 -167 -2z m177 -41 c19 -21 33 -46 33 -61 l0 -25 -125 0 -125 0 0 24
c0 28 43 83 74 97 12 5 41 7 66 5 35 -3 51 -11 77 -40z" transform="translate(176.5, 424.9565217391305) scale(0.25, 0.25) translate(0.000000,84.000000) scale(0.100000,-0.100000)" fill="#000000" stroke="none"/></g></g><g id="shape-1b875770-b803-11ec-a432-25179b898222"><g><path d="M60 570 l0 -290 25 0 25 0 0 140 0 139 31 36 c54 61 108 79 163 54
46 -21 56 -63 56 -223 l0 -146 26 0 27 0 -5 153 c-6 156 -14 196 -50 234 -47
51 -145 37 -209 -29 l-39 -40 0 131 0 131 -25 0 -25 0 0 -290z M1760 735 c0
-69 -4 -125 -9 -125 -5 0 -16 11 -24 24 -25 37 -101 69 -148 63 -91 -12 -169
-108 -169 -206 0 -47 28 -121 58 -154 43 -48 135 -70 195 -48 14 5 41 24 61
41 33 30 36 30 36 11 0 -22 32 -61 50 -61 6 0 10 9 10 19 0 11 -4 23 -10 26
-6 4 -10 105 -10 271 0 257 -1 264 -20 264 -19 0 -20 -7 -20 -125z m-73 -100
c56 -34 73 -68 73 -152 0 -109 -49 -165 -145 -165 -89 0 -146 57 -153 154 -11
148 106 232 225 163z M645 688 c-214 -75 -165 -408 60 -408 72 0 165 49 165
87 0 20 -25 16 -46 -8 -86 -95 -237 -48 -269 84 l-7 27 181 0 c203 0 190 -6
169 77 -27 109 -150 177 -253 141z m145 -44 c33 -20 66 -69 75 -111 l7 -33
-163 0 -162 0 6 35 c17 107 142 164 237 109z M1090 691 c-39 -13 -90 -41 -90
-50 0 -19 15 -19 51 -1 24 13 58 20 94 20 49 0 60 -4 86 -29 24 -25 29 -38 29
-80 l0 -50 -32 10 c-87 24 -206 -1 -242 -52 -19 -27 -21 -77 -4 -114 33 -73
158 -87 243 -27 40 28 45 29 45 13 0 -23 25 -51 46 -51 8 0 14 9 14 20 0 11
-4 20 -9 20 -5 0 -11 63 -13 139 -3 151 -9 169 -70 214 -29 22 -108 31 -148
18z m133 -206 c36 -6 37 -7 37 -51 0 -25 -5 -54 -10 -65 -16 -29 -84 -59 -135
-59 -38 0 -52 5 -76 29 -59 59 -26 138 64 151 43 6 54 5 120 -5z M2023 675
c-32 -16 -61 -41 -79 -67 -26 -37 -29 -50 -29 -119 0 -70 3 -82 30 -121 71
-101 212 -118 303 -35 12 11 22 26 22 34 0 17 -27 17 -37 -1 -15 -26 -78 -56
-116 -56 -76 0 -143 55 -161 133 l-6 27 180 0 180 0 0 33 c-1 71 -59 151 -132
181 -53 23 -96 20 -155 -9z m157 -27 c33 -17 51 -35 68 -68 41 -82 44 -80
-139 -80 l-161 0 6 31 c10 52 46 100 90 120 54 24 82 24 136 -3z M2400 485 l0
-205 25 0 25 0 0 139 c0 136 1 140 26 171 30 35 73 60 104 60 13 0 20 7 20 20
0 44 -90 7 -129 -53 l-21 -32 0 53 c0 49 -2 52 -25 52 l-25 0 0 -205z" transform="translate(166.5, 75) scale(0.25, 0.25) translate(0.000000,104.000000) scale(0.100000,-0.100000)" fill="#000000" stroke="none"/></g></g></g></svg>