<svg id="screenshot" viewBox="-0.7071067811865476 -0.7071067811865476 481.4142135623731 271.4142135623731" width="481.4142135623731" height="271.4142135623731" version="1.1" xmlns="http://www.w3.org/2000/svg" xmlns:xlink="http://www.w3.org/1999/xlink" style="-webkit-print-color-adjust: exact;"><g id="shape-3f9ed30a-b9e7-11ec-ad78-6bdac0a49457" clip-path="url(#frame-clip-3f9ed30a-b9e7-11ec-ad78-6bdac0a49457-49ba1ed0-bb68-11ec-b5fa-cde239b138fc)"><defs><clipPath id="frame-clip-3f9ed30a-b9e7-11ec-ad78-6bdac0a49457-49ba1ed0-bb68-11ec-b5fa-cde239b138fc" class="frame-clip"><rect x="0" y="0" width="480" height="270"/></clipPath></defs><rect x="0" y="0" width="480" height="270" class="frame-background" style="fill: rgb(0, 0, 0); fill-opacity: 1; stroke-width: 1; stroke: rgb(255, 255, 255); stroke-opacity: 1;"/><g id="shape-acf938b0-b9eb-11ec-ad78-6bdac0a49457"><rect rx="0" ry="0" x="359" y="79" transform="matrix(1,0,0,1,0,0)" width="103" height="45" style="fill: rgb(255, 255, 255); fill-opacity: 1;"/></g><g id="shape-2a3e7740-b9ec-11ec-ad78-6bdac0a49457"><g><path d="M12 608 c3 -7 31 -84 64 -171 58 -155 59 -158 87 -155 27 3 32 11 91
168 l63 165 -25 3 c-13 2 -28 0 -32 -5 -4 -4 -26 -63 -50 -130 -23 -68 -46
-120 -50 -118 -4 3 -27 61 -50 130 -42 122 -44 125 -73 125 -19 0 -28 -4 -25
-12z M385 520 c-61 -25 -91 -109 -61 -169 41 -79 159 -94 214 -28 18 21 -25
30 -52 11 -29 -20 -73 -17 -96 6 -42 42 -28 50 81 50 l101 0 -7 33 c-11 48
-23 66 -58 87 -33 21 -87 25 -122 10z m91 -38 c11 -7 34 -45 34 -56 0 -3 -31
-6 -70 -6 -75 0 -83 7 -54 48 15 22 66 30 90 14z M663 520 c-31 -13 -63 -68
-63 -108 0 -53 29 -102 68 -119 38 -16 84 -10 103 13 6 8 16 14 21 14 15 0 1
-60 -19 -82 -20 -23 -90 -24 -121 -2 -23 16 -42 12 -42 -9 0 -40 123 -62 180
-32 54 28 60 46 60 197 l0 138 -25 0 c-19 0 -25 -5 -25 -21 l0 -20 -26 20
c-28 22 -73 26 -111 11z m117 -68 c43 -53 12 -122 -54 -122 -41 0 -66 28 -66
73 0 79 73 109 120 49z M947 518 c-29 -10 -35 -47 -6 -39 8 3 32 6 55 9 45 4
74 -15 74 -48 0 -15 -6 -17 -39 -13 -105 14 -169 -60 -106 -122 30 -31 82 -33
118 -5 30 24 37 25 37 6 0 -14 21 -26 46 -26 16 0 20 45 4 55 -5 3 -10 37 -10
75 0 64 -2 70 -31 94 -33 28 -89 34 -142 14z m121 -145 c2 -13 -5 -27 -20 -37
-42 -29 -98 -16 -98 24 0 28 23 41 70 38 37 -2 46 -7 48 -25z M1190 405 l0
-125 30 0 30 0 0 80 c0 88 17 120 63 120 39 0 47 -18 47 -112 l0 -88 31 0 31
0 -4 104 c-4 129 -17 151 -86 143 -26 -3 -53 -14 -68 -28 l-24 -22 0 26 c0 22
-5 27 -25 27 l-25 0 0 -125z" transform="translate(373, 106) scale(0.25, 0.25) translate(0.000000,72.000000) scale(0.100000,-0.100000)" fill="#ffffff" stroke="none"/></g></g><g id="shape-8c103bd0-b9eb-11ec-ad78-6bdac0a49457"><rect rx="0" ry="0" x="134" y="79" transform="matrix(1,0,0,1,0,0)" width="103" height="45" style="fill: rgb(255, 255, 255); fill-opacity: 1;"/></g><g id="shape-e144b470-bb65-11ec-ab4b-d315181430bb"><rect rx="0" ry="0" x="357.95138497263105" y="170" transform="matrix(1,0,0,1,0,0)" width="103" height="45" style="fill: rgb(255, 255, 255); fill-opacity: 1;"/></g><g id="shape-e144b471-bb65-11ec-ab4b-d315181430bb"><g><path d="M12 608 c3 -7 31 -84 64 -171 58 -155 59 -158 87 -155 27 3 32 11 91
168 l63 165 -25 3 c-13 2 -28 0 -32 -5 -4 -4 -26 -63 -50 -130 -23 -68 -46
-120 -50 -118 -4 3 -27 61 -50 130 -42 122 -44 125 -73 125 -19 0 -28 -4 -25
-12z M385 520 c-61 -25 -91 -109 -61 -169 41 -79 159 -94 214 -28 18 21 -25
30 -52 11 -29 -20 -73 -17 -96 6 -42 42 -28 50 81 50 l101 0 -7 33 c-11 48
-23 66 -58 87 -33 21 -87 25 -122 10z m91 -38 c11 -7 34 -45 34 -56 0 -3 -31
-6 -70 -6 -75 0 -83 7 -54 48 15 22 66 30 90 14z M663 520 c-31 -13 -63 -68
-63 -108 0 -53 29 -102 68 -119 38 -16 84 -10 103 13 6 8 16 14 21 14 15 0 1
-60 -19 -82 -20 -23 -90 -24 -121 -2 -23 16 -42 12 -42 -9 0 -40 123 -62 180
-32 54 28 60 46 60 197 l0 138 -25 0 c-19 0 -25 -5 -25 -21 l0 -20 -26 20
c-28 22 -73 26 -111 11z m117 -68 c43 -53 12 -122 -54 -122 -41 0 -66 28 -66
73 0 79 73 109 120 49z M947 518 c-29 -10 -35 -47 -6 -39 8 3 32 6 55 9 45 4
74 -15 74 -48 0 -15 -6 -17 -39 -13 -105 14 -169 -60 -106 -122 30 -31 82 -33
118 -5 30 24 37 25 37 6 0 -14 21 -26 46 -26 16 0 20 45 4 55 -5 3 -10 37 -10
75 0 64 -2 70 -31 94 -33 28 -89 34 -142 14z m121 -145 c2 -13 -5 -27 -20 -37
-42 -29 -98 -16 -98 24 0 28 23 41 70 38 37 -2 46 -7 48 -25z M1190 405 l0
-125 30 0 30 0 0 80 c0 88 17 120 63 120 39 0 47 -18 47 -112 l0 -88 31 0 31
0 -4 104 c-4 129 -17 151 -86 143 -26 -3 -53 -14 -68 -28 l-24 -22 0 26 c0 22
-5 27 -25 27 l-25 0 0 -125z" transform="translate(371.95138497263105, 197) scale(0.25, 0.25) translate(0.000000,72.000000) scale(0.100000,-0.100000)" fill="#ffffff" stroke="none"/></g></g><g id="shape-e144b472-bb65-11ec-ab4b-d315181430bb"><rect rx="0" ry="0" x="132.95138497263108" y="170" transform="matrix(1,0,0,1,0,0)" width="103" height="45" style="fill: rgb(255, 255, 255); fill-opacity: 1;"/></g><g id="shape-e144b473-bb65-11ec-ab4b-d315181430bb"><g><path d="M5860 665 c0 -33 2 -35 35 -35 33 0 35 2 35 35 0 33 -2 35 -35 35
-33 0 -35 -2 -35 -35z M60 465 l0 -225 30 0 30 0 0 80 0 80 58 0 57 -1 48 -79
c46 -76 50 -80 84 -80 34 0 35 1 21 23 -8 12 -31 49 -52 83 l-37 61 41 40 c51
51 58 116 19 179 -31 50 -72 64 -193 64 l-106 0 0 -225z m236 142 c30 -35 31
-85 3 -121 -19 -24 -26 -26 -100 -26 l-79 0 0 83 c0 46 3 87 8 91 4 4 38 6 76
4 60 -3 71 -7 92 -31z M1170 625 c0 -52 -1 -55 -25 -55 -20 0 -25 -5 -25 -25
0 -20 5 -25 25 -25 l25 0 0 -120 c0 -107 2 -122 20 -140 22 -22 72 -26 113
-11 19 7 23 15 20 33 -4 21 -9 23 -40 20 -23 -3 -38 0 -44 9 -5 8 -9 58 -9
112 l0 97 35 0 c31 0 35 3 35 25 0 22 -4 25 -35 25 l-35 0 0 55 c0 54 0 55
-30 55 -30 0 -30 -1 -30 -55z M3130 625 c0 -48 -2 -55 -20 -55 -15 0 -20 -7
-20 -25 0 -18 5 -25 20 -25 19 0 20 -7 20 -107 0 -120 11 -152 52 -167 41 -14
103 3 103 29 0 16 -8 21 -40 25 l-40 5 -3 108 -3 107 36 0 c31 0 35 3 35 25 0
22 -4 25 -35 25 l-35 0 0 55 0 55 -35 0 -35 0 0 -55z M4240 625 c0 -48 -2 -55
-20 -55 -15 0 -20 -7 -20 -25 0 -18 5 -25 20 -25 19 0 20 -7 20 -107 0 -120
11 -152 52 -167 41 -14 103 3 103 29 0 16 -8 21 -40 25 l-40 5 -3 108 -3 107
36 0 c31 0 35 3 35 25 0 22 -4 25 -35 25 l-35 0 0 55 0 55 -35 0 -35 0 0 -55z
M565 571 c-47 -12 -79 -37 -104 -82 -19 -33 -22 -51 -19 -95 8 -90 62 -144
151 -152 59 -5 128 22 146 57 17 31 -24 34 -66 5 -42 -28 -72 -30 -114 -8 -25
12 -59 64 -59 89 0 3 61 5 136 5 l137 0 -5 44 c-11 98 -106 161 -203 137z
m101 -59 c23 -18 44 -53 44 -71 0 -7 -38 -11 -106 -11 -105 0 -105 0 -99 23 4
12 20 34 36 50 35 32 92 36 125 9z M920 573 c-42 -7 -80 -44 -87 -85 -4 -31
-1 -41 20 -61 15 -13 53 -32 87 -42 65 -20 84 -34 78 -62 -8 -45 -91 -51 -154
-12 -28 17 -32 18 -38 3 -11 -28 -7 -35 37 -54 76 -35 180 -20 207 29 17 32
12 76 -11 97 -12 10 -53 30 -93 44 -59 21 -72 29 -74 49 -7 48 67 68 130 35
25 -13 32 -14 39 -2 13 20 11 26 -13 42 -26 16 -90 26 -128 19z M1465 571
c-16 -4 -42 -14 -58 -22 -24 -13 -26 -17 -14 -32 11 -17 15 -17 49 -2 21 8 50
15 66 15 42 0 82 -35 82 -70 l0 -29 -63 6 c-76 7 -130 -14 -152 -58 -23 -43
-18 -68 19 -105 44 -44 104 -47 162 -8 24 16 40 22 42 15 7 -21 33 -41 54 -41
18 0 19 4 13 32 -4 18 -10 79 -13 134 -7 104 -18 131 -62 154 -25 13 -93 19
-125 11z m118 -178 c16 -9 6 -60 -17 -82 -35 -33 -85 -38 -119 -11 -61 48 -1
118 88 104 22 -3 43 -8 48 -11z M2455 571 c-16 -4 -42 -14 -58 -22 -24 -13
-26 -17 -14 -32 11 -17 15 -17 49 -2 21 8 50 15 66 15 42 0 82 -35 82 -70 l0
-29 -63 6 c-76 7 -130 -14 -152 -58 -23 -43 -18 -68 19 -105 44 -44 104 -47
162 -8 24 16 40 22 42 15 7 -21 33 -41 54 -41 18 0 19 4 13 32 -4 18 -10 79
-13 134 -7 104 -18 131 -62 154 -25 13 -93 19 -125 11z m118 -178 c16 -9 6
-60 -17 -82 -35 -33 -85 -38 -119 -11 -61 48 -1 118 88 104 22 -3 43 -8 48
-11z M2895 571 c-35 -9 -85 -39 -85 -52 0 -5 -4 -9 -10 -9 -5 0 -10 14 -10 30
0 25 -4 30 -25 30 l-25 0 0 -165 0 -165 30 0 30 0 0 109 c0 104 1 109 27 135
30 30 62 41 98 32 33 -8 45 -56 45 -178 l0 -98 30 0 30 0 0 120 c0 155 -17
201 -80 213 -14 3 -39 2 -55 -2z M3615 571 c-82 -20 -130 -90 -123 -178 8 -89
62 -143 152 -151 43 -3 62 0 93 18 22 12 44 30 51 40 10 16 8 19 -18 25 -22 5
-37 1 -56 -14 -39 -31 -89 -28 -124 8 -51 50 -52 126 -3 175 33 33 96 36 128
6 18 -17 27 -19 48 -11 31 12 34 22 10 43 -41 35 -106 51 -158 39z M3927 564
c-48 -15 -68 -37 -50 -55 6 -6 23 -4 46 6 79 33 147 8 147 -54 l0 -30 -54 6
c-99 10 -168 -32 -168 -103 0 -31 7 -44 32 -67 29 -26 38 -29 85 -25 31 3 64
13 82 26 l31 22 16 -25 c9 -14 25 -25 36 -25 19 0 20 5 15 88 -3 48 -8 106
-11 129 -5 42 -32 86 -62 102 -34 18 -97 20 -145 5z m136 -171 c4 -2 7 -19 7
-38 0 -79 -141 -101 -165 -26 -15 48 43 85 115 74 19 -3 38 -8 43 -10z M4563
570 c-79 -18 -123 -75 -123 -159 0 -101 67 -171 164 -171 52 0 90 16 124 53
l23 25 -25 6 c-18 4 -31 1 -46 -14 -45 -45 -120 -36 -157 19 -40 60 -38 61
112 61 l135 0 0 27 c0 42 -38 110 -73 131 -39 24 -91 32 -134 22z m97 -53 c22
-17 50 -59 50 -74 0 -10 -26 -13 -105 -13 -68 0 -105 4 -105 11 0 18 21 53 44
71 24 20 94 23 116 5z M4926 570 c-127 -39 -144 -249 -26 -311 57 -31 105 -23
158 24 l22 20 0 -50 c0 -45 -4 -54 -31 -77 -42 -35 -111 -36 -162 -2 -32 22
-37 23 -49 9 -10 -13 -7 -20 19 -43 72 -64 217 -45 270 37 15 23 18 54 21 210
l4 183 -31 0 c-28 0 -31 -3 -31 -31 l0 -31 -35 31 c-20 17 -41 31 -48 31 -7 0
-21 2 -32 5 -11 2 -33 0 -49 -5z m123 -76 c29 -24 31 -31 31 -89 0 -59 -2 -65
-32 -90 -78 -66 -184 12 -164 119 15 81 103 113 165 60z M5345 571 c-83 -21
-130 -90 -123 -178 14 -163 212 -211 305 -74 28 41 31 117 6 168 -29 63 -117
102 -188 84z m108 -77 c49 -49 48 -125 -3 -175 -70 -71 -181 -2 -167 104 12
89 111 130 170 71z M6125 571 c-47 -12 -79 -37 -104 -82 -19 -33 -22 -51 -19
-95 8 -90 62 -144 151 -152 59 -5 128 22 146 57 17 31 -24 34 -66 5 -42 -28
-72 -30 -114 -8 -25 12 -59 64 -59 89 0 3 61 5 136 5 l137 0 -5 44 c-11 98
-106 161 -203 137z m101 -59 c23 -18 44 -53 44 -71 0 -7 -38 -11 -106 -11
-105 0 -105 0 -99 23 4 12 20 34 36 50 35 32 92 36 125 9z M6465 565 c-22 -8
-41 -15 -43 -15 -2 0 -10 -16 -17 -35 -25 -58 3 -99 85 -126 84 -26 90 -30 90
-59 0 -51 -82 -62 -153 -21 -25 14 -29 14 -37 1 -16 -24 -12 -30 33 -50 59
-27 135 -26 178 3 28 19 35 30 37 64 4 53 -16 74 -89 98 -95 31 -118 55 -83
89 20 21 77 20 116 0 30 -15 32 -15 45 2 11 16 10 20 -14 35 -41 25 -102 31
-148 14z M1752 429 c3 -140 3 -141 31 -165 20 -17 40 -24 68 -24 46 0 72 11
112 48 l27 26 0 -25 c0 -31 17 -49 47 -49 18 0 23 6 23 24 0 14 -4 28 -10 31
-6 4 -10 62 -10 141 l0 134 -30 0 -30 0 0 -106 0 -106 -34 -34 c-40 -40 -85
-45 -116 -14 -18 18 -20 33 -20 140 l0 120 -31 0 -31 0 4 -141z M2140 405 l0
-165 30 0 30 0 0 104 c0 120 13 147 81 167 31 10 39 17 39 36 0 36 -44 31 -86
-11 l-34 -34 0 34 c0 31 -3 34 -30 34 l-30 0 0 -165z M5630 405 l0 -165 30 0
30 0 0 109 c0 109 0 109 30 134 16 14 43 28 60 32 23 5 30 12 30 31 0 38 -44
32 -87 -11 -19 -19 -37 -35 -39 -35 -2 0 -4 16 -4 35 0 31 -3 35 -25 35 l-25
0 0 -165z M5860 405 l0 -165 35 0 35 0 0 165 0 165 -35 0 -35 0 0 -165z" transform="translate(154, 143) scale(0.25, 0.25) translate(0.000000,84.000000) scale(0.100000,-0.100000)" fill="#ffffff" stroke="none"/></g></g><g id="shape-e144b474-bb65-11ec-ab4b-d315181430bb"><rect rx="0" ry="0" x="19.951384972631068" y="170" transform="matrix(1,0,0,1,0,0)" width="103" height="45" style="fill: rgb(255, 255, 255); fill-opacity: 1;"/></g><g id="shape-e144b475-bb65-11ec-ab4b-d315181430bb"><rect rx="0" ry="0" x="244.95138497263108" y="170" transform="matrix(1,0,0,1,0,0)" width="103" height="45" style="fill: rgb(255, 255, 255); fill-opacity: 1;"/></g><g id="shape-d6d36720-b9e9-11ec-ad78-6bdac0a49457"><g><path d="M500 665 c0 -33 2 -35 35 -35 33 0 35 2 35 35 0 33 -2 35 -35 35 -33
0 -35 -2 -35 -35z M970 470 l0 -230 35 0 35 0 0 111 0 111 31 29 c21 20 41 29
64 29 55 0 65 -25 65 -162 l0 -118 36 0 37 0 -5 133 c-5 148 -13 172 -64 193
-44 18 -95 6 -136 -32 l-28 -28 0 97 0 97 -35 0 -35 0 0 -230z M3870 665 c0
-32 2 -35 30 -35 28 0 30 3 30 35 0 32 -2 35 -30 35 -28 0 -30 -3 -30 -35z
M60 464 l0 -227 109 6 c123 6 173 25 215 79 73 96 53 263 -38 326 -48 33 -90
42 -193 42 l-93 0 0 -226z m235 148 c43 -25 65 -75 65 -147 0 -111 -57 -165
-172 -165 l-68 0 0 163 c0 90 3 167 8 171 12 13 135 -4 167 -22z M2250 625 c0
-52 -1 -55 -25 -55 -20 0 -25 -5 -25 -25 0 -20 5 -25 25 -25 l25 0 0 -124 c0
-118 1 -126 22 -140 43 -31 128 -15 128 24 0 15 -8 19 -42 22 l-43 3 -3 108
-3 107 36 0 c31 0 35 3 35 25 0 22 -4 25 -35 25 l-35 0 0 55 c0 54 0 55 -30
55 -30 0 -30 -1 -30 -55z M740 573 c-42 -7 -80 -44 -87 -85 -4 -31 -1 -41 20
-61 15 -13 53 -32 87 -42 65 -20 84 -34 78 -62 -8 -45 -91 -51 -154 -12 -28
17 -32 18 -38 3 -11 -28 -7 -35 37 -54 76 -35 180 -20 207 29 17 32 12 76 -11
97 -12 10 -53 30 -93 44 -59 21 -72 29 -74 49 -7 48 67 68 130 35 25 -13 32
-14 39 -2 13 20 11 26 -13 42 -26 16 -90 26 -128 19z M1607 565 c-106 -37
-145 -155 -85 -253 50 -81 184 -96 256 -30 28 27 28 34 -3 42 -16 4 -36 -1
-57 -14 -39 -24 -69 -25 -107 -6 -34 18 -51 54 -51 112 0 37 6 51 29 75 35 35
94 40 132 10 13 -10 31 -16 39 -14 43 13 44 13 16 42 -16 16 -47 34 -71 40
-53 13 -51 13 -98 -4z M1947 569 c-43 -10 -77 -26 -77 -37 1 -26 18 -32 53
-17 78 32 141 11 153 -53 l7 -33 -51 7 c-68 9 -115 -1 -152 -32 -39 -33 -42
-89 -6 -131 22 -25 31 -28 84 -28 48 0 67 5 92 23 17 13 32 22 33 20 17 -33
28 -44 51 -46 22 -3 26 0 26 22 0 14 -4 28 -10 31 -5 3 -10 44 -10 91 0 51 -6
98 -14 119 -23 54 -102 82 -179 64z m116 -175 c36 -11 15 -74 -33 -99 -58 -30
-120 -8 -120 44 0 58 61 80 153 55z M2565 571 c-47 -12 -79 -37 -104 -82 -19
-33 -22 -51 -19 -95 8 -90 62 -144 151 -152 59 -5 128 22 146 57 17 31 -24 34
-66 5 -42 -28 -72 -30 -114 -8 -25 12 -59 64 -59 89 0 3 61 5 136 5 l137 0 -5
44 c-11 98 -106 161 -203 137z m101 -59 c23 -18 44 -53 44 -71 0 -7 -38 -11
-106 -11 -105 0 -105 0 -99 23 4 12 20 34 36 50 35 32 92 36 125 9z M2914 561
c-72 -33 -110 -127 -84 -205 36 -110 149 -148 231 -78 l32 26 -5 -54 c-4 -43
-11 -59 -34 -78 -24 -21 -35 -24 -86 -20 -42 3 -64 10 -81 26 -23 22 -24 22
-41 3 -16 -18 -16 -20 10 -40 59 -46 164 -51 229 -11 57 35 65 66 65 264 l0
176 -25 0 c-21 0 -25 -5 -25 -30 l0 -31 -37 30 c-50 39 -97 46 -149 22z m147
-70 c24 -25 29 -37 29 -81 0 -28 -5 -60 -10 -71 -13 -22 -61 -49 -90 -49 -68
0 -119 78 -100 150 22 81 114 108 171 51z M3337 566 c-51 -19 -76 -42 -99 -95
-50 -109 30 -231 152 -231 142 0 218 161 129 274 -41 53 -119 75 -182 52z
m124 -75 c23 -24 29 -38 29 -75 0 -58 -17 -94 -51 -112 -79 -40 -149 12 -149
111 0 64 39 105 100 105 33 0 48 -6 71 -29z M4120 568 c-101 -28 -150 -150
-97 -242 36 -63 68 -81 146 -81 59 0 72 4 104 28 43 32 46 42 15 50 -15 4 -30
-1 -44 -14 -12 -11 -40 -23 -63 -26 -36 -5 -44 -2 -76 30 -19 19 -35 44 -35
56 0 20 5 21 135 21 l136 0 -7 38 c-13 74 -46 114 -111 138 -44 15 -56 16
-103 2z m121 -67 c16 -16 29 -39 29 -50 0 -20 -5 -21 -104 -21 l-105 0 11 30
c25 73 115 94 169 41z M4476 570 c-48 -15 -76 -49 -76 -91 0 -47 31 -74 113
-96 64 -18 84 -40 67 -73 -17 -33 -73 -36 -131 -8 -47 24 -50 24 -59 7 -21
-39 67 -76 157 -66 53 6 89 36 99 84 9 44 -24 74 -109 102 -76 25 -94 46 -71
79 18 26 74 30 118 7 28 -15 56 -7 56 16 0 28 -114 55 -164 39z M500 405 l0
-165 35 0 35 0 0 165 0 165 -35 0 -35 0 0 -165z M3630 405 l0 -165 30 0 30 0
0 104 c0 120 13 147 81 167 31 10 39 17 39 36 0 36 -44 31 -86 -11 l-34 -34 0
34 c0 31 -3 34 -30 34 l-30 0 0 -165z M3870 405 l0 -165 30 0 30 0 0 165 0
165 -30 0 -30 0 0 -165z" transform="translate(179, 51) scale(0.25, 0.25) translate(0.000000,84.000000) scale(0.100000,-0.100000)" fill="#ffffff" stroke="none"/></g></g><g id="shape-3f9ed300-b9e7-11ec-ad78-6bdac0a49457"><g><path d="M280 435 c0 -8 5 -15 10 -15 6 0 10 7 10 15 0 8 -4 15 -10 15 -5 0
-10 -7 -10 -15z M56 419 c-19 -15 -26 -30 -26 -54 0 -39 20 -54 100 -75 25 -7
51 -17 58 -22 19 -16 15 -66 -7 -78 -28 -14 -92 -12 -121 5 -29 17 -40 18 -40
6 0 -5 20 -17 45 -26 81 -32 155 -3 155 60 0 41 -11 50 -96 78 -62 20 -69 25
-72 50 -6 53 42 76 111 52 42 -14 60 -4 21 14 -40 18 -98 13 -128 -10z M385
337 c-40 -40 -46 -81 -18 -127 30 -51 83 -63 127 -29 l26 20 0 -40 c0 -30 -6
-44 -22 -55 -28 -20 -78 -20 -104 -1 -28 21 -40 18 -19 -5 25 -28 103 -28 139
1 26 20 26 22 25 142 -1 67 -4 111 -6 99 l-5 -24 -22 21 c-12 11 -36 24 -54
27 -27 6 -37 1 -67 -29z m115 -7 c14 -14 20 -33 20 -67 0 -59 -20 -83 -71 -83
-46 0 -79 36 -79 87 0 69 84 109 130 63z M690 363 c-8 -3 -25 -15 -37 -26
l-23 -20 0 21 c0 12 -4 22 -10 22 -6 0 -10 -40 -10 -100 0 -60 4 -100 10 -100
6 0 10 30 10 70 0 62 3 74 25 95 30 31 80 34 95 6 5 -11 10 -54 10 -95 0 -49
4 -76 11 -76 7 0 10 29 7 91 -2 76 -6 93 -22 105 -20 14 -40 17 -66 7z M1238
351 c-31 -25 -38 -26 -38 -6 0 8 -4 15 -10 15 -6 0 -10 -53 -10 -140 0 -87 4
-140 10 -140 6 0 10 27 10 60 0 33 3 60 6 60 3 0 17 -9 31 -20 34 -27 65 -25
101 5 38 32 48 72 29 116 -26 64 -83 85 -129 50z m96 -32 c30 -35 32 -58 11
-98 -25 -50 -91 -57 -124 -15 -68 87 43 197 113 113z M280 260 c0 -60 4 -100
10 -100 6 0 10 40 10 100 0 60 -4 100 -10 100 -6 0 -10 -40 -10 -100z M943
279 c6 -90 22 -119 68 -119 15 0 41 12 58 26 29 24 31 25 31 5 0 -11 5 -23 12
-27 8 -5 9 0 5 17 -4 13 -7 60 -8 104 l-2 80 -7 -74 c-8 -85 -30 -114 -84
-109 -40 4 -56 36 -56 116 0 40 -4 62 -11 62 -9 0 -10 -24 -6 -81z" transform="translate(426, 9) scale(0.25, 0.25) translate(0.000000,52.000000) scale(0.100000,-0.100000)" fill="#ffffff" stroke="none"/></g></g><g id="shape-3f9ed312-b9e7-11ec-ad78-6bdac0a49457"><rect rx="0" ry="0" x="148" y="8" transform="matrix(1,0,0,1,0,0)" width="184" height="15" style="fill: rgb(238, 238, 238); fill-opacity: 1; stroke-width: 0.5; stroke: rgb(144, 144, 144); stroke-opacity: 1;"/></g><g id="shape-3f9ed30d-b9e7-11ec-ad78-6bdac0a49457" height="24px" width="24px"><g id="shape-3f9ed30e-b9e7-11ec-ad78-6bdac0a49457"><path d="M158.5076122000504,17.169735069600392L158.11261220005042,17.169735069600392L157.97261220005038,17.0347350696004C158.46261220005042,16.46473506960035,158.7576122000504,15.724735069600456,158.7576122000504,14.919735069600392C158.7576122000504,13.12473506960032,157.30261220005036,11.669735069600392,155.5076122000504,11.669735069600392C153.71261220005042,11.669735069600392,152.2576122000504,13.12473506960032,152.2576122000504,14.919735069600392C152.2576122000504,16.71473506960035,153.71261220005042,18.169735069600392,155.5076122000504,18.169735069600392C156.3126122000504,18.169735069600392,157.05261220005036,17.87473506960032,157.62261220005036,17.38473506960031L157.7576122000504,17.52473506960041L157.7576122000504,17.919735069600392L160.2576122000504,20.414735069600283L161.00261220005038,19.669735069600392L158.5076122000504,17.169735069600392ZZM155.5076122000504,17.169735069600392C154.2626122000504,17.169735069600392,153.2576122000504,16.164735069600283,153.2576122000504,14.919735069600392C153.2576122000504,13.674735069600388,154.2626122000504,12.669735069600392,155.5076122000504,12.669735069600392C156.75261220005038,12.669735069600392,157.7576122000504,13.674735069600388,157.7576122000504,14.919735069600392C157.7576122000504,16.164735069600283,156.75261220005038,17.169735069600392,155.5076122000504,17.169735069600392ZZ" style="fill-opacity: 0.5; opacity: 0.5;"/></g></g><g id="shape-3f9ed309-b9e7-11ec-ad78-6bdac0a49457"><g><path d="M411 314 c0 -11 3 -14 6 -6 3 7 2 16 -1 19 -3 4 -6 -2 -5 -13z M1581
314 c0 -11 3 -14 6 -6 3 7 2 16 -1 19 -3 4 -6 -2 -5 -13z M1531 304 c0 -11 3
-14 6 -6 3 7 2 16 -1 19 -3 4 -6 -2 -5 -13z M142 260 c0 -14 2 -19 5 -12 2 6
2 18 0 25 -3 6 -5 1 -5 -13z M2222 255 c0 -16 2 -22 5 -12 2 9 2 23 0 30 -3 6
-5 -1 -5 -18z M2902 255 c0 -16 2 -22 5 -12 2 9 2 23 0 30 -3 6 -5 -1 -5 -18z
M1961 234 c0 -11 3 -14 6 -6 3 7 2 16 -1 19 -3 4 -6 -2 -5 -13z" transform="translate(164.26617481254866, 11.21216883700049) scale(0.25, 0.25) translate(0.000000,48.000000) scale(0.100000,-0.100000)" fill="#a7a7a7" stroke="none"/></g></g><g id="shape-3f9ed311-b9e7-11ec-ad78-6bdac0a49457"><g><path d="M280 435 c0 -8 5 -15 10 -15 6 0 10 7 10 15 0 8 -4 15 -10 15 -5 0
-10 -7 -10 -15z M950 435 c0 -8 5 -15 10 -15 6 0 10 7 10 15 0 8 -4 15 -10 15
-5 0 -10 -7 -10 -15z M56 419 c-19 -15 -26 -30 -26 -54 0 -39 20 -54 100 -75
25 -7 51 -17 58 -22 19 -16 15 -66 -7 -78 -28 -14 -92 -12 -121 5 -29 17 -40
18 -40 6 0 -5 20 -17 45 -26 81 -32 155 -3 155 60 0 41 -11 50 -96 78 -62 20
-69 25 -72 50 -6 53 42 76 111 52 42 -14 60 -4 21 14 -40 18 -98 13 -128 -10z
M385 337 c-40 -40 -46 -81 -18 -127 30 -51 83 -63 127 -29 l26 20 0 -40 c0
-30 -6 -44 -22 -55 -28 -20 -78 -20 -104 -1 -28 21 -40 18 -19 -5 25 -28 103
-28 139 1 26 20 26 22 25 142 -1 67 -4 111 -6 99 l-5 -24 -22 21 c-12 11 -36
24 -54 27 -27 6 -37 1 -67 -29z m115 -7 c14 -14 20 -33 20 -67 0 -59 -20 -83
-71 -83 -46 0 -79 36 -79 87 0 69 84 109 130 63z M690 363 c-8 -3 -25 -15 -37
-26 l-23 -20 0 21 c0 12 -4 22 -10 22 -6 0 -10 -40 -10 -100 0 -60 4 -100 10
-100 6 0 10 30 10 70 0 62 3 74 25 95 30 31 80 34 95 6 5 -11 10 -54 10 -95 0
-49 4 -76 11 -76 7 0 10 29 7 91 -2 76 -6 93 -22 105 -20 14 -40 17 -66 7z
M1086 345 c-34 -23 -36 -23 -36 -5 0 11 -4 20 -10 20 -6 0 -10 -40 -10 -100 0
-60 4 -100 10 -100 6 0 10 27 10 61 0 86 27 128 82 129 38 0 48 -25 48 -114 0
-44 4 -76 10 -76 6 0 10 35 10 85 0 72 -3 88 -20 105 -26 26 -50 25 -94 -5z
M280 260 c0 -60 4 -100 10 -100 6 0 10 40 10 100 0 60 -4 100 -10 100 -6 0
-10 -40 -10 -100z M950 260 c0 -60 4 -100 10 -100 6 0 10 40 10 100 0 60 -4
100 -10 100 -6 0 -10 -40 -10 -100z" transform="translate(375, 9) scale(0.25, 0.25) translate(0.000000,52.000000) scale(0.100000,-0.100000)" fill="#ffffff" stroke="none"/></g></g><g id="shape-c5284f60-b9e7-11ec-ad78-6bdac0a49457" height="24px" width="24px"><g id="shape-c529d600-b9e7-11ec-ad78-6bdac0a49457"><path d="M11.75,20.04166666666663L28.25,20.04166666666663L28.25,18.20833333333337L11.75,18.20833333333337L11.75,20.04166666666663ZZM11.75,15.458333333333371L28.25,15.458333333333371L28.25,13.625L11.75,13.625L11.75,15.458333333333371ZZM11.75,9.041666666666629L11.75,10.875L28.25,10.875L28.25,9.041666666666629L11.75,9.041666666666629ZZ" style="fill: rgb(255, 255, 255); fill-opacity: 1;"/></g></g><g id="shape-65472fe0-b9eb-11ec-ad78-6bdac0a49457"><rect rx="0" ry="0" x="21" y="79" transform="matrix(1,0,0,1,0,0)" width="103" height="45" style="fill: rgb(255, 255, 255); fill-opacity: 1;"/></g><g id="shape-921fbf50-b9eb-11ec-ad78-6bdac0a49457"><rect rx="0" ry="0" x="246" y="79" transform="matrix(1,0,0,1,0,0)" width="103" height="45" style="fill: rgb(255, 255, 255); fill-opacity: 1;"/></g></g></svg>