<svg id="screenshot" viewBox="-0.7071067811865476 -0.7071067811865476 401.4142135623731 601.4142135623731" width="401.4142135623731" height="601.4142135623731" version="1.1" xmlns="http://www.w3.org/2000/svg" xmlns:xlink="http://www.w3.org/1999/xlink" style="-webkit-print-color-adjust: exact;"><g id="shape-bad47d30-b9c0-11ec-b365-d589f8d7c069" clip-path="url(#frame-clip-bad47d30-b9c0-11ec-b365-d589f8d7c069-c0dfc050-b9d3-11ec-bd02-430f37c2986e)"><defs><clipPath id="frame-clip-bad47d30-b9c0-11ec-b365-d589f8d7c069-c0dfc050-b9d3-11ec-bd02-430f37c2986e" class="frame-clip"><rect x="0" y="0" width="400" height="600"/></clipPath></defs><rect x="0" y="0" width="400" height="600" class="frame-background" style="fill: rgb(255, 255, 255); fill-opacity: 1; stroke-width: 1; stroke: rgb(0, 0, 0); stroke-opacity: 1;"/><g id="shape-40877230-b9cf-11ec-bb1c-133376e88578"><rect rx="0" ry="0" x="27" y="27" transform="matrix(1,0,0,1,0,0)" width="345" height="103" style="fill: rgb(255, 255, 255); fill-opacity: 1; stroke-width: 1; stroke: rgb(0, 0, 0); stroke-opacity: 1;"/></g><g id="shape-4344bd70-b9cf-11ec-bb1c-133376e88578"><g><path d="M50 430 c0 -221 1 -230 19 -230 18 0 20 9 23 118 2 64 2 168 0 230
-3 103 -5 112 -23 112 -18 0 -19 -9 -19 -230z M1410 560 c0 -91 -9 -123 -24
-85 -9 26 -69 55 -111 55 -88 0 -151 -79 -143 -177 5 -60 27 -96 78 -130 55
-38 114 -29 173 25 l27 26 0 -27 c0 -16 8 -30 19 -37 26 -13 31 -13 31 5 0 8
-4 15 -10 15 -6 0 -10 78 -10 215 0 184 -2 215 -15 215 -12 0 -15 -18 -15
-100z m-52 -78 c47 -31 67 -121 42 -186 -13 -35 -67 -66 -113 -66 -110 0 -163
146 -86 235 42 47 101 54 157 17z M165 519 c-29 -17 -65 -51 -65 -62 0 -5 14
3 31 17 40 34 107 36 135 5 16 -18 19 -40 22 -150 3 -103 6 -129 18 -129 11 0
14 24 14 129 0 117 -2 131 -23 162 -19 29 -29 34 -67 36 -25 2 -54 -2 -65 -8z
M480 507 c-76 -50 -99 -159 -50 -230 31 -45 87 -77 134 -77 41 0 114 33 123
56 10 27 -6 27 -37 1 -40 -35 -87 -43 -133 -23 -39 16 -77 67 -77 104 0 22 1
22 140 22 l140 0 0 25 c0 40 -36 101 -73 124 -48 29 -123 28 -167 -2z m177
-41 c19 -21 33 -46 33 -61 l0 -25 -125 0 -125 0 0 24 c0 28 43 83 74 97 12 5
41 7 66 5 35 -3 51 -11 77 -40z M838 513 c-21 -8 -38 -19 -38 -24 0 -12 8 -11
57 7 82 31 153 -4 153 -77 l0 -38 -54 6 c-30 3 -71 2 -91 -1 -95 -18 -118
-128 -35 -171 52 -27 119 -14 173 33 15 14 17 13 17 -6 0 -12 8 -26 18 -31 17
-9 18 -4 15 82 -6 166 -12 185 -63 220 -31 21 -102 21 -152 0z m150 -149 c20
-6 23 -12 20 -52 -4 -60 -38 -87 -110 -87 -40 0 -53 4 -69 24 -48 59 -5 121
85 121 28 0 61 -3 74 -6z M1612 513 c-83 -41 -111 -165 -55 -242 39 -51 83
-73 140 -69 57 5 134 51 115 70 -7 7 -17 3 -31 -11 -25 -25 -62 -41 -94 -41
-55 0 -127 69 -127 122 0 16 13 18 146 18 l146 0 -7 33 c-24 113 -133 169
-233 120z m143 -23 c29 -18 41 -36 59 -92 5 -17 -5 -18 -124 -18 -120 0 -130
1 -130 19 0 26 41 83 70 98 37 19 88 16 125 -7z M1930 365 c0 -140 2 -165 15
-165 12 0 15 19 15 114 0 114 0 115 30 144 16 17 43 33 60 37 28 6 44 35 20
35 -21 0 -69 -30 -89 -56 l-21 -27 0 42 c0 30 -4 41 -15 41 -13 0 -15 -25 -15
-165z" transform="translate(172, 68) scale(0.25, 0.25) translate(0.000000,80.000000) scale(0.100000,-0.100000)" fill="#000000" stroke="none"/></g></g><g id="shape-47f2dc30-b9cf-11ec-bb1c-133376e88578"><rect rx="0" ry="0" x="27" y="530" transform="matrix(1,0,0,1,0,0)" width="345" height="42" style="fill: rgb(255, 255, 255); fill-opacity: 1; stroke-width: 1; stroke: rgb(0, 0, 0); stroke-opacity: 1;"/></g><g id="shape-4c200b20-b9cf-11ec-bb1c-133376e88578"><g><path d="M123 658 c-26 -12 -53 -65 -53 -102 0 -21 -5 -26 -25 -26 -16 0 -25
-6 -25 -15 0 -9 9 -15 25 -15 l25 0 0 -150 c0 -127 2 -150 15 -150 13 0 15 23
15 150 l0 150 45 0 c33 0 45 4 45 15 0 11 -12 15 -46 15 l-47 0 6 36 c9 54 34
76 79 72 42 -4 54 16 16 26 -31 8 -49 7 -75 -6z M1020 585 c0 -48 -2 -55 -20
-55 -11 0 -20 -7 -20 -15 0 -8 9 -15 20 -15 19 0 20 -7 20 -114 0 -63 4 -126
10 -140 13 -35 51 -52 91 -40 38 11 35 30 -4 26 -51 -6 -57 8 -57 144 l0 124
35 0 c24 0 35 5 35 15 0 10 -11 15 -35 15 l-35 0 0 55 c0 48 -2 55 -20 55 -18
0 -20 -7 -20 -55z M309 507 c-43 -29 -79 -91 -79 -137 0 -45 37 -118 73 -144
40 -29 134 -29 174 0 129 96 70 304 -87 304 -32 0 -58 -7 -81 -23z m125 -11
c70 -29 101 -109 70 -185 -23 -58 -56 -81 -116 -81 -41 0 -54 5 -78 28 -73 74
-48 215 43 241 44 13 44 13 81 -3z M691 508 c-106 -71 -99 -239 12 -291 106
-51 227 27 227 145 0 56 -15 91 -59 132 -25 24 -42 30 -88 34 -48 3 -64 0 -92
-20z m123 -12 c130 -54 100 -267 -37 -266 -23 1 -52 6 -65 14 -92 50 -80 219
18 253 45 15 45 15 84 -1z M1279 507 c-50 -34 -79 -82 -79 -134 0 -113 87
-189 195 -169 34 7 95 49 95 67 0 16 -18 10 -43 -15 -14 -14 -42 -28 -63 -32
-63 -12 -133 39 -150 109 l-6 27 146 0 c166 0 165 -1 124 80 -44 87 -144 118
-219 67z m149 -17 c29 -18 62 -71 62 -100 0 -6 -47 -10 -130 -10 -83 0 -130 4
-130 10 0 29 33 82 62 100 42 25 94 25 136 0z M1600 365 c0 -140 2 -165 15
-165 12 0 15 19 15 114 0 114 0 115 30 144 16 17 43 33 60 37 28 6 44 35 20
35 -21 0 -69 -30 -89 -56 l-21 -27 0 42 c0 30 -4 41 -15 41 -13 0 -15 -25 -15
-165z" transform="translate(177, 541) scale(0.25, 0.25) translate(0.000000,80.000000) scale(0.100000,-0.100000)" fill="#000000" stroke="none"/></g></g><g id="shape-4fd35250-b9d3-11ec-ab48-336cbce659bb"><g id="shape-562be990-b9cf-11ec-bb1c-133376e88578" filter="url(#filter_c0e2f4a0-b9d3-11ec-bd02-430f37c2986e)"><defs><filter id="filter_c0e2f4a0-b9d3-11ec-bd02-430f37c2986e" x="-0.03983419053663494" y="-0.035694120171872325" width="1.07966838107327" height="1.0713882403437447" filterUnits="objectBoundingBox" color-interpolation-filters="sRGB"><feFlood flood-opacity="0" result="BackgroundImageFix"/><feColorMatrix in="SourceAlpha" type="matrix" values="0 0 0 0 0 0 0 0 0 0 0 0 0 0 0 0 0 0 127 0"/><feMorphology radius="2" operator="dilate" in="SourceAlpha" result="filter_09a8e3a0-b9c2-11ec-aa1f-ebca4f389c43"/><feOffset dx="0" dy="0"/><feGaussianBlur stdDeviation="2.5"/><feColorMatrix type="matrix" values="0 0 0 0 0 0 0 0 0 0 0 0 0 0 0 0 0 0 0.2 0"/><feBlend mode="normal" in2="BackgroundImageFix" result="filter_09a8e3a0-b9c2-11ec-aa1f-ebca4f389c43"/><feBlend mode="normal" in="SourceGraphic" in2="filter_09a8e3a0-b9c2-11ec-aa1f-ebca4f389c43" result="shape"/></filter></defs><rect rx="15" ry="15" x="38" y="151" transform="matrix(1,0,0,1,0,0)" width="319" height="356" style="fill: rgb(255, 255, 255); fill-opacity: 1; opacity: 1;"/></g><g id="shape-f2d92a50-b9cf-11ec-bb1c-133376e88578"><rect rx="15" ry="15" x="141" y="460.6481948223727" transform="matrix(1,0,0,1,0,0)" width="113" height="32" style="fill: rgb(237, 145, 33); fill-opacity: 0.87; stroke-width: 0.8; stroke: rgb(203, 109, 4); stroke-opacity: 1;"/></g><g id="shape-06b45360-b9d0-11ec-bb1c-133376e88578"><g><path d="M114 639 c-53 -15 -79 -53 -79 -114 0 -65 22 -93 98 -125 67 -29 87
-47 87 -80 0 -52 -56 -72 -127 -45 -45 17 -47 17 -60 -1 -7 -10 -12 -23 -10
-29 6 -17 59 -38 108 -43 94 -9 158 34 166 111 8 69 -13 99 -104 144 -67 33
-78 42 -81 66 -6 49 13 60 90 54 60 -5 68 -4 73 14 9 27 0 37 -43 49 -43 12
-75 12 -118 -1z M377 644 c-4 -4 -7 -20 -7 -36 0 -25 3 -28 36 -28 34 0 35 1
32 33 -2 26 -8 33 -28 35 -14 2 -29 0 -33 -4z M1400 478 c0 -193 8 -219 80
-256 37 -20 56 -23 111 -19 75 5 118 25 145 71 17 27 19 52 19 196 l0 165 -37
3 -38 3 0 -158 c0 -177 -5 -193 -65 -213 -44 -14 -86 -6 -113 23 -20 21 -22
36 -24 182 l-3 160 -37 3 -38 3 0 -163z M372 368 l3 -163 30 0 30 0 3 163 2
162 -35 0 -35 0 2 -162z M581 516 c-28 -16 -50 -52 -51 -84 0 -28 25 -79 42
-85 10 -3 9 -9 -4 -24 -21 -22 -23 -64 -6 -81 9 -9 5 -16 -16 -33 -23 -18 -27
-28 -24 -63 4 -58 45 -78 145 -74 79 4 121 25 137 70 22 61 -19 102 -111 115
-58 7 -83 19 -83 39 0 17 39 34 78 34 45 0 90 34 97 73 4 20 2 44 -4 55 -10
18 -8 21 17 24 19 2 27 9 27 23 0 19 -7 20 -110 22 -77 2 -117 -1 -134 -11z
m127 -48 c7 -7 12 -24 12 -38 0 -36 -17 -50 -60 -50 -43 0 -60 14 -60 50 0 36
17 50 60 50 20 0 41 -5 48 -12z m17 -274 c8 -4 15 -17 15 -30 0 -19 -8 -25
-39 -34 -78 -21 -137 13 -104 60 14 20 21 21 64 16 27 -4 56 -9 64 -12z M900
524 c-13 -4 -15 -28 -12 -152 2 -81 5 -153 7 -160 3 -8 16 -12 32 -10 l28 3 5
119 c5 116 6 119 33 140 26 19 30 19 55 5 27 -14 27 -16 32 -139 l5 -125 30 0
30 0 3 136 c2 125 1 138 -18 162 -18 22 -30 27 -67 27 -29 0 -55 -7 -73 -20
l-29 -21 -11 21 c-10 19 -19 22 -50 14z M1865 522 c-6 -4 -8 -86 -5 -227 l5
-220 30 0 30 0 3 73 c3 65 5 73 20 66 9 -4 36 -9 58 -12 35 -3 47 1 77 27 74
66 72 232 -5 285 -31 22 -90 20 -121 -4 -14 -11 -27 -20 -30 -20 -3 0 -7 9
-10 20 -5 20 -33 26 -52 12z m170 -67 c21 -20 25 -34 25 -82 0 -96 -31 -127
-106 -109 -23 6 -24 10 -24 90 0 79 2 86 26 105 34 27 50 26 79 -4z" transform="translate(170, 466.6481948223727) scale(0.25, 0.25) translate(0.000000,80.000000) scale(0.100000,-0.100000)" fill="#ffffff" stroke="none"/></g></g><g id="shape-9c426ad0-b9cf-11ec-bb1c-133376e88578"><rect rx="15" ry="15" x="75.5" y="408.95543362987644" transform="matrix(1,0,0,1,0,0)" width="249" height="39" style="fill: rgb(255, 255, 255); fill-opacity: 1; stroke-width: 1; stroke: rgb(44, 42, 42); stroke-opacity: 1; opacity: 0.98;"/></g><g id="shape-c918b050-b9cf-11ec-bb1c-133376e88578"><g><path d="M430 555 c0 -3 -18 -89 -40 -191 -43 -202 -44 -204 -32 -204 4 0 16
42 26 93 10 50 23 97 28 104 5 7 7 16 4 21 -4 7 1 39 29 160 3 12 1 22 -5 22
-5 0 -10 -2 -10 -5z M2916 543 c-17 -58 -77 -365 -73 -376 2 -6 7 3 11 21 l8
33 34 -31 c39 -33 78 -39 122 -16 83 43 125 153 87 226 -35 67 -107 68 -177 2
-33 -30 -33 -31 -9 76 10 45 15 82 11 82 -5 0 -11 -8 -14 -17z m156 -130 c41
-37 34 -134 -13 -188 -53 -59 -133 -66 -172 -13 -17 23 -18 31 -7 84 23 113
127 176 192 117z M66 373 c-20 -98 -39 -186 -42 -195 -3 -10 -1 -18 4 -18 5 0
18 35 28 78 l19 77 92 5 c84 5 94 7 122 34 56 54 64 125 19 174 -19 20 -31 22
-113 22 l-92 0 -37 -177z m207 158 c59 -23 57 -124 -4 -175 -27 -23 -39 -26
-110 -26 -69 0 -79 2 -79 18 0 15 7 46 35 170 5 20 11 22 70 22 35 0 75 -4 88
-9z M488 434 c-16 -8 -28 -17 -28 -20 0 -2 9 0 19 6 11 5 35 10 54 10 53 0 60
-32 36 -157 -22 -113 -23 -121 -10 -108 5 6 19 57 29 114 21 105 18 145 -11
163 -19 12 -60 9 -89 -8z M762 433 c-94 -46 -126 -191 -56 -251 56 -48 163
-12 204 68 35 68 20 163 -29 190 -29 15 -81 12 -119 -7z m126 -29 c27 -30 30
-109 7 -154 -35 -68 -132 -95 -179 -50 -49 45 -39 141 20 197 53 49 111 52
152 7z M1006 310 c-16 -77 -26 -143 -23 -146 6 -6 19 38 37 129 18 91 76 142
151 135 33 -3 34 -5 37 -49 2 -25 -6 -84 -16 -132 -10 -48 -15 -87 -11 -87 5
0 11 10 14 23 3 12 12 51 20 87 22 98 20 157 -6 171 -33 17 -87 4 -132 -32
l-40 -32 7 36 c4 21 3 37 -1 37 -5 0 -21 -63 -37 -140z M1384 431 c-128 -78
-113 -271 21 -271 34 0 101 35 109 57 6 14 3 14 -16 -4 -26 -24 -69 -43 -98
-43 -33 0 -80 51 -82 90 l-3 35 86 5 c104 6 139 25 139 73 0 38 -7 50 -37 66
-32 17 -84 13 -119 -8z m109 -2 c28 -15 37 -28 37 -55 0 -40 -34 -57 -125 -62
-81 -4 -85 -4 -85 16 0 25 54 90 84 102 30 12 64 12 89 -1z M1755 318 c-15
-73 -30 -139 -32 -146 -3 -6 0 -12 5 -12 6 0 18 35 27 78 23 107 33 129 74
162 38 32 96 41 119 18 17 -17 15 -70 -8 -168 -17 -76 -19 -102 -6 -89 9 9 46
189 46 223 0 80 -87 89 -164 18 l-29 -27 6 38 c3 20 2 37 -2 37 -4 0 -20 -60
-36 -132z M2085 428 c-19 -85 -35 -174 -35 -202 0 -67 61 -85 137 -41 23 14
43 28 43 31 0 3 -16 -4 -35 -16 -19 -12 -48 -22 -64 -22 -65 -2 -74 37 -42
185 10 48 15 87 10 87 -5 0 -11 -10 -14 -22z M2271 353 c-27 -123 -34 -180
-21 -188 6 -4 10 5 10 20 0 14 11 77 25 141 29 133 28 124 17 124 -5 0 -19
-44 -31 -97z M2406 433 c-8 -26 -56 -253 -56 -264 0 -5 4 -9 8 -9 4 0 17 44
27 97 17 85 24 101 56 135 30 32 42 38 78 38 62 0 68 -25 41 -158 -12 -57 -19
-106 -16 -110 10 -9 12 -2 35 113 25 124 20 160 -24 171 -37 9 -70 -2 -111
-38 l-36 -31 7 36 c7 38 1 51 -9 20z M2664 431 c-18 -11 -35 -25 -40 -33 -4
-7 5 -3 20 10 19 14 42 22 68 22 57 0 64 -27 38 -153 -23 -113 -24 -125 -11
-112 5 6 19 58 31 117 18 92 19 112 8 135 -17 36 -69 42 -114 14z M3264 431
c-128 -78 -113 -271 21 -271 34 0 101 35 109 57 6 14 3 14 -16 -4 -26 -24 -69
-43 -98 -43 -33 0 -80 51 -82 90 l-3 35 86 5 c104 6 139 25 139 73 0 38 -7 50
-37 66 -32 17 -84 13 -119 -8z m109 -2 c28 -15 37 -28 37 -55 0 -40 -34 -57
-125 -62 -81 -4 -85 -4 -85 16 0 25 54 90 84 102 30 12 64 12 89 -1z M3493
308 c-17 -79 -29 -145 -27 -147 9 -9 15 9 35 100 22 103 46 139 106 161 18 7
33 16 33 20 0 13 -54 -12 -84 -40 l-29 -27 6 38 c3 20 2 37 -2 37 -4 0 -21
-64 -38 -142z" transform="translate(86, 420) scale(0.25, 0.25) translate(0.000000,68.000000) scale(0.100000,-0.100000)" fill="#b5b0b0" stroke="none"/></g></g><g id="shape-911edad0-b9cf-11ec-bb1c-133376e88578"><rect rx="15" ry="15" x="75.5" y="360.15008002444586" transform="matrix(1,0,0,1,0,0)" width="249" height="39" style="fill: rgb(255, 255, 255); fill-opacity: 1; stroke-width: 1; stroke: rgb(44, 42, 42); stroke-opacity: 1; opacity: 0.98;"/></g><g id="shape-be3cd7b0-b9cf-11ec-bb1c-133376e88578"><g><path d="M648 478 c-10 -46 -22 -84 -27 -86 -6 -2 -7 -10 -4 -18 3 -8 0 -42
-7 -75 -10 -46 -20 -66 -47 -89 -95 -84 -205 3 -158 126 31 80 105 117 171 84
l39 -20 -28 25 c-97 86 -261 -80 -200 -202 10 -21 30 -44 44 -52 34 -19 90 -8
129 25 l30 26 0 -26 c0 -13 5 -28 10 -31 6 -4 10 6 10 23 0 17 16 103 35 193
39 180 38 179 27 179 -4 0 -15 -37 -24 -82z M998 555 c-3 -6 -8 -28 -12 -50
-4 -22 -12 -57 -17 -79 l-10 -38 -32 32 c-28 28 -36 32 -73 27 -81 -9 -144
-82 -144 -167 0 -102 76 -150 158 -100 17 11 32 22 32 25 0 3 -11 -2 -25 -11
-32 -21 -91 -21 -116 1 -40 38 -43 119 -5 177 25 39 64 61 109 62 31 1 44 -5
63 -27 26 -30 29 -60 13 -122 -18 -72 -20 -115 -4 -115 8 0 12 6 9 15 -3 8 11
91 31 185 32 150 40 214 23 185z M111 368 c-62 -100 -110 -186 -108 -191 2 -6
21 20 42 56 l39 67 92 0 92 0 13 -70 c7 -38 16 -70 21 -70 12 0 11 15 -22 187
-38 199 -39 203 -49 203 -5 0 -59 -82 -120 -182z m138 51 c11 -57 18 -105 16
-107 -1 -2 -41 -2 -88 0 l-85 3 65 108 c37 59 68 106 70 104 2 -2 12 -51 22
-108z M1086 433 c-8 -26 -56 -253 -56 -264 0 -5 4 -9 8 -9 4 0 16 42 26 93 10
50 21 96 24 102 7 11 13 95 7 95 -2 0 -6 -8 -9 -17z M1165 434 c-16 -8 -37
-22 -45 -31 -9 -8 0 -6 20 6 19 12 43 21 53 21 9 0 17 5 17 10 0 14 -10 12
-45 -6z M1293 425 c-45 -27 -83 -91 -83 -138 0 -40 24 -92 51 -111 29 -20 81
-21 117 -2 31 16 70 56 55 56 -6 0 -14 -7 -17 -15 -9 -25 -74 -48 -113 -40
-39 7 -73 53 -73 98 l0 27 78 0 c103 0 146 20 150 71 6 74 -83 103 -165 54z
m117 5 c27 -14 42 -47 35 -71 -10 -30 -64 -49 -140 -49 -74 0 -80 9 -45 65 33
53 105 79 150 55z M1583 434 c-37 -18 -62 -68 -46 -93 5 -9 40 -27 76 -40 74
-26 89 -47 62 -87 -30 -46 -88 -56 -148 -25 -20 10 -37 15 -37 10 0 -20 64
-41 112 -37 62 6 98 38 98 84 0 37 -10 45 -94 73 -42 15 -52 22 -54 44 -7 56
77 94 139 63 42 -21 49 -20 20 4 -28 24 -84 26 -128 4z M1833 430 c-35 -21
-52 -63 -36 -89 5 -9 34 -25 64 -36 73 -27 79 -32 79 -65 0 -57 -87 -86 -152
-52 -21 11 -38 16 -38 11 0 -15 58 -39 95 -39 68 0 115 39 115 95 0 27 -27 43
-115 71 -23 7 -31 16 -33 40 -6 57 74 92 137 61 33 -17 44 -5 12 13 -31 16
-93 12 -128 -10z" transform="translate(90, 371) scale(0.25, 0.25) translate(0.000000,68.000000) scale(0.100000,-0.100000)" fill="#b5b0b0" stroke="none"/></g></g><g id="shape-8d9d0710-b9cf-11ec-bb1c-133376e88578"><rect rx="15" ry="15" x="75" y="311.3447264190153" transform="matrix(1,0,0,1,0,0)" width="249" height="39" style="fill: rgb(255, 255, 255); fill-opacity: 1; stroke-width: 1; stroke: rgb(44, 42, 42); stroke-opacity: 1; opacity: 0.98;"/></g><g id="shape-b5e16860-b9cf-11ec-bb1c-133376e88578"><g><path d="M1142 550 c-21 -13 -40 -36 -49 -60 -11 -27 -22 -40 -35 -40 -10 0
-18 -4 -18 -10 0 -5 7 -10 15 -10 20 0 19 -9 -10 -144 -29 -132 -28 -126 -16
-126 5 0 11 15 15 33 3 17 16 78 27 135 l22 102 58 0 c33 0 59 -3 59 -7 0 -5
-13 -65 -29 -135 -15 -71 -24 -128 -20 -128 4 0 10 8 13 18 7 21 56 254 56
265 0 4 -29 7 -65 7 -74 0 -79 7 -42 61 21 31 27 34 75 34 52 0 66 7 36 19
-28 11 -58 6 -92 -14z M4456 543 c-3 -10 -10 -47 -17 -83 -7 -36 -13 -67 -15
-69 -2 -2 -17 11 -34 29 -27 29 -35 32 -74 28 -75 -9 -134 -72 -143 -153 -12
-102 63 -163 147 -120 41 21 38 25 -7 10 -71 -24 -123 17 -123 98 0 106 124
191 191 132 33 -30 37 -53 22 -119 -20 -91 -22 -124 -9 -129 7 -3 12 8 12 32
1 20 17 109 36 199 20 89 32 162 27 162 -4 0 -10 -8 -13 -17z M158 530 c-84
-45 -142 -164 -119 -248 23 -87 79 -129 156 -117 43 6 125 56 125 76 0 5 -18
-5 -40 -22 -31 -25 -52 -33 -93 -37 -46 -4 -57 -1 -84 22 -58 49 -67 139 -24
225 55 107 192 145 255 71 13 -17 27 -30 31 -30 11 0 -17 45 -39 62 -29 24
-120 23 -168 -2z M485 431 c-99 -60 -126 -185 -54 -245 93 -78 250 46 225 177
-14 75 -103 110 -171 68z m99 -5 c81 -34 72 -163 -16 -229 -36 -27 -103 -26
-130 0 -21 22 -34 87 -24 127 9 34 54 86 91 102 38 17 39 17 79 0z M760 447
c0 -1 -13 -65 -30 -142 -35 -162 -32 -145 -21 -145 4 0 17 42 27 93 16 84 22
96 60 135 35 36 47 42 83 42 62 0 70 -25 47 -143 -11 -50 -21 -99 -24 -109 -2
-10 0 -18 6 -18 5 0 20 54 33 119 21 113 22 120 6 145 -27 41 -94 31 -149 -21
-33 -32 -41 -28 -29 15 6 20 6 32 0 32 -5 0 -9 -1 -9 -3z M1326 433 c-8 -26
-56 -253 -56 -264 0 -5 4 -9 8 -9 4 0 16 42 26 93 10 50 21 96 24 102 7 11 13
95 7 95 -2 0 -6 -8 -9 -17z M1405 434 c-16 -8 -37 -22 -45 -31 -9 -8 0 -6 20
6 19 12 43 21 53 21 9 0 17 5 17 10 0 14 -10 12 -45 -6z M1483 308 c-17 -79
-29 -145 -27 -147 9 -9 15 9 35 99 11 51 23 98 26 103 8 13 11 87 3 87 -4 0
-20 -64 -37 -142z M1588 434 c-16 -8 -28 -17 -28 -20 0 -2 9 0 19 6 26 14 74
13 89 -2 17 -17 15 -69 -7 -168 -17 -77 -19 -101 -7 -89 3 3 14 47 26 99 12
52 26 101 33 109 9 12 9 13 0 7 -9 -5 -13 0 -13 17 0 50 -57 71 -112 41z
M1790 440 c-11 -7 -6 -10 21 -10 65 0 72 -33 40 -180 -17 -77 -19 -101 -7 -89
9 9 46 189 46 222 0 54 -55 86 -100 57z M2106 273 c-21 -98 -40 -188 -43 -200
-3 -13 -1 -23 5 -23 5 0 17 40 27 89 l17 90 33 -35 c24 -25 41 -34 64 -34 96
0 180 116 152 209 -16 56 -55 84 -105 78 -21 -3 -43 -10 -49 -16 -8 -8 -1 -8
23 -1 65 18 120 -31 120 -107 0 -29 -31 -92 -58 -116 -50 -46 -130 -38 -158
15 -20 39 -3 125 34 171 24 29 24 30 3 12 l-24 -20 6 33 c4 17 3 32 -2 32 -4
0 -25 -80 -45 -177z M2525 438 c-104 -57 -137 -187 -65 -251 28 -25 39 -28 72
-24 21 3 54 17 73 32 l35 26 0 -25 c0 -41 18 -39 19 2 0 20 12 85 25 145 13
59 19 107 14 107 -4 0 -11 -13 -14 -30 -4 -16 -8 -30 -9 -30 -2 0 -17 14 -33
30 -33 32 -79 39 -117 18z m84 -9 c18 -6 38 -24 47 -40 13 -25 13 -37 0 -90
-16 -69 -36 -94 -91 -113 -50 -18 -90 -4 -111 37 -34 65 8 171 80 203 38 16
36 16 75 3z M2823 434 c-37 -18 -62 -68 -46 -93 5 -9 40 -27 76 -40 74 -26 89
-47 62 -87 -30 -46 -88 -56 -148 -25 -20 10 -37 15 -37 10 0 -20 64 -41 112
-37 62 6 98 38 98 84 0 37 -10 45 -94 73 -42 15 -52 22 -54 44 -7 56 77 94
139 63 42 -21 49 -20 20 4 -28 24 -84 26 -128 4z M3073 430 c-35 -21 -52 -63
-36 -89 5 -9 34 -25 64 -36 73 -27 79 -32 79 -65 0 -57 -87 -86 -152 -52 -21
11 -38 16 -38 11 0 -15 58 -39 95 -39 68 0 115 39 115 95 0 27 -27 43 -115 71
-23 7 -31 16 -33 40 -6 57 74 92 137 61 33 -17 44 -5 12 13 -31 16 -93 12
-128 -10z M3280 440 c0 -30 54 -280 60 -280 10 0 54 51 77 90 9 17 21 30 25
30 4 0 12 -27 19 -60 7 -36 16 -59 23 -57 35 11 174 250 163 279 -3 7 -11 -3
-18 -22 -31 -86 -118 -230 -138 -230 -5 0 -14 28 -21 63 -11 59 -10 65 14 117
14 30 25 62 25 70 0 8 -12 -10 -26 -40 -28 -59 -29 -59 -47 23 -4 15 -10 27
-15 27 -5 0 -2 -31 6 -70 l14 -69 -34 -53 c-61 -95 -61 -95 -87 57 -13 74 -27
135 -32 135 -4 0 -8 -4 -8 -10z M3775 436 c-41 -18 -82 -67 -96 -116 -24 -80
25 -160 99 -160 53 0 116 42 141 93 62 128 -23 236 -144 183z m119 -26 c26
-26 33 -107 12 -148 -53 -103 -179 -118 -207 -24 -16 54 -5 105 33 147 48 56
120 67 162 25z M4016 310 c-16 -77 -26 -143 -23 -146 6 -6 19 38 37 129 14 68
45 109 101 131 23 9 39 19 37 22 -9 9 -63 -17 -92 -44 l-29 -27 7 38 c4 20 3
37 -1 37 -5 0 -21 -63 -37 -140z" transform="translate(88, 324) scale(0.25, 0.25) translate(0.000000,68.000000) scale(0.100000,-0.100000)" fill="#b5b0b0" stroke="none"/></g></g><g id="shape-89680ff0-b9cf-11ec-bb1c-133376e88578"><rect rx="15" ry="15" x="75" y="261.8986353252115" transform="matrix(1,0,0,1,0,0)" width="249" height="39" style="fill: rgb(255, 255, 255); fill-opacity: 1; stroke-width: 1; stroke: rgb(44, 42, 42); stroke-opacity: 1; opacity: 0.98;"/></g><g id="shape-a865b790-b9cf-11ec-bb1c-133376e88578"><g><path d="M2378 478 c-10 -46 -22 -84 -27 -86 -6 -2 -7 -10 -4 -18 3 -8 0 -42
-7 -75 -10 -46 -20 -66 -47 -89 -95 -84 -205 3 -158 126 31 80 105 117 171 84
l39 -20 -28 25 c-97 86 -261 -80 -200 -202 10 -21 30 -44 44 -52 34 -19 90 -8
129 25 l30 26 0 -26 c0 -13 5 -28 10 -31 6 -4 10 6 10 23 0 17 16 103 35 193
39 180 38 179 27 179 -4 0 -15 -37 -24 -82z M66 373 c-20 -98 -39 -186 -42
-195 -3 -10 -1 -18 4 -18 5 0 18 35 28 78 l19 77 92 5 c84 5 94 7 122 34 56
54 64 125 19 174 -19 20 -31 22 -113 22 l-92 0 -37 -177z m207 158 c59 -23 57
-124 -4 -175 -27 -23 -39 -26 -110 -26 -69 0 -79 2 -79 18 0 15 7 46 35 170 5
20 11 22 70 22 35 0 75 -4 88 -9z M439 427 c-74 -50 -105 -138 -72 -204 10
-21 30 -44 44 -52 34 -19 90 -8 129 25 l30 26 0 -26 c0 -13 5 -28 10 -31 6 -4
10 7 10 25 0 25 16 109 45 238 3 12 1 22 -4 22 -6 0 -13 -16 -17 -35 -3 -19
-10 -33 -14 -30 -5 3 -6 -4 -3 -15 9 -33 -18 -123 -45 -153 -92 -98 -216 -10
-167 119 31 80 105 117 171 84 l39 -20 -28 25 c-36 32 -83 32 -128 2z M753
430 c-32 -19 -48 -52 -41 -87 2 -12 22 -24 63 -38 77 -26 85 -31 85 -61 0 -59
-82 -90 -150 -56 -23 11 -39 15 -37 8 17 -52 167 -42 196 12 27 51 9 76 -78
107 -50 18 -56 23 -59 51 -6 57 74 92 137 61 17 -9 31 -12 31 -8 0 13 -49 31
-83 31 -18 0 -47 -9 -64 -20z M1025 441 c-36 -15 -57 -47 -53 -82 3 -29 8 -35
43 -47 89 -31 105 -41 105 -66 0 -67 -114 -99 -172 -49 -9 8 -18 10 -22 5 -3
-6 11 -18 31 -27 54 -26 120 -16 155 24 49 55 33 85 -59 115 -28 10 -57 23
-63 31 -19 23 -1 66 36 81 43 18 67 18 107 -1 l32 -16 -24 21 c-24 21 -78 26
-116 11z M1217 418 c4 -18 16 -82 27 -142 12 -60 26 -111 32 -113 6 -2 30 24
55 57 24 33 47 60 50 60 4 0 10 -22 14 -48 10 -74 20 -83 50 -47 61 72 160
265 136 265 -4 0 -18 -27 -30 -59 -21 -58 -118 -218 -126 -209 -3 3 -11 33
-18 69 -13 62 -12 66 15 126 30 68 32 73 20 73 -4 0 -15 -22 -25 -50 -10 -27
-22 -50 -26 -50 -5 0 -12 23 -16 50 -4 28 -11 50 -16 50 -12 0 -11 -14 5 -82
l14 -56 -45 -67 c-24 -37 -47 -64 -50 -61 -4 3 -52 244 -53 264 0 1 -4 2 -10
2 -5 0 -7 -14 -3 -32z M1698 430 c-97 -52 -120 -213 -37 -256 107 -55 243 71
209 195 -20 76 -94 102 -172 61z m129 -23 c34 -34 39 -93 11 -146 -30 -59 -66
-84 -119 -84 -58 0 -89 35 -89 100 0 125 121 205 197 130z M1976 433 c-8 -26
-56 -253 -56 -264 0 -5 4 -9 8 -9 4 0 16 42 26 93 10 50 21 96 24 102 7 11 13
95 7 95 -2 0 -6 -8 -9 -17z M2055 434 c-16 -8 -37 -22 -45 -31 -9 -8 0 -6 20
6 19 12 43 21 53 21 9 0 17 5 17 10 0 14 -10 12 -45 -6z" transform="translate(89, 274) scale(0.25, 0.25) translate(0.000000,68.000000) scale(0.100000,-0.100000)" fill="#b5b0b0" stroke="none"/></g></g><g id="shape-7c21ee10-b9cf-11ec-bb1c-133376e88578"><rect rx="15" ry="15" x="75" y="213.09328171978092" transform="matrix(1,0,0,1,0,0)" width="249" height="39" style="fill: rgb(255, 255, 255); fill-opacity: 1; stroke-width: 1; stroke: rgb(44, 42, 42); stroke-opacity: 1; opacity: 0.98;"/></g><g id="shape-a0ef5110-b9cf-11ec-bb1c-133376e88578"><g><path d="M97 540 c-3 -8 -15 -62 -27 -119 -36 -167 -20 -228 62 -253 72 -21
158 24 199 105 12 22 32 91 45 153 27 131 27 124 15 124 -4 0 -18 -48 -30
-107 -36 -181 -93 -263 -182 -263 -108 0 -131 64 -89 252 12 50 19 99 17 107
-3 14 -5 14 -10 1z M493 434 c-37 -18 -62 -68 -46 -93 5 -9 40 -27 76 -40 74
-26 89 -47 62 -87 -30 -46 -88 -56 -148 -25 -20 10 -37 15 -37 10 0 -20 64
-41 112 -37 62 6 98 38 98 84 0 37 -10 45 -94 73 -42 15 -52 22 -54 44 -7 56
77 94 139 63 42 -21 49 -20 20 4 -28 24 -84 26 -128 4z M763 425 c-45 -27 -83
-91 -83 -138 0 -40 24 -92 51 -111 29 -20 81 -21 117 -2 31 16 70 56 55 56 -6
0 -14 -7 -17 -15 -9 -25 -74 -48 -113 -40 -39 7 -73 53 -73 98 l0 27 78 0
c103 0 146 20 150 71 6 74 -83 103 -165 54z m117 5 c27 -14 42 -47 35 -71 -10
-30 -64 -49 -140 -49 -74 0 -80 9 -45 65 33 53 105 79 150 55z M1030 447 c0
-1 -13 -65 -30 -142 -35 -161 -32 -145 -22 -145 5 0 17 39 27 88 9 48 24 97
31 110 8 12 10 22 5 22 -5 0 -6 15 -1 35 4 20 4 35 -1 35 -5 0 -9 -1 -9 -3z
M1114 436 c-18 -8 -35 -19 -38 -25 -4 -5 6 -4 21 4 15 8 34 15 41 15 6 0 12 5
12 10 0 12 2 12 -36 -4z M1186 310 c-16 -77 -26 -143 -23 -146 6 -6 19 38 37
129 18 91 76 142 151 135 33 -3 34 -5 37 -49 2 -25 -6 -84 -16 -132 -10 -48
-15 -87 -11 -87 5 0 11 10 14 23 3 12 12 51 20 87 22 98 20 157 -6 171 -33 17
-87 4 -132 -32 l-40 -32 7 36 c4 21 3 37 -1 37 -5 0 -21 -63 -37 -140z M1559
427 c-74 -50 -105 -138 -72 -204 10 -21 30 -44 44 -52 34 -19 90 -8 129 25
l30 26 0 -26 c0 -13 5 -28 10 -31 6 -4 10 7 10 25 0 25 16 109 45 238 3 12 1
22 -4 22 -6 0 -13 -16 -17 -35 -3 -19 -10 -33 -14 -30 -5 3 -6 -4 -3 -15 9
-33 -18 -123 -45 -153 -92 -98 -216 -10 -167 119 31 80 105 117 171 84 l39
-20 -28 25 c-36 32 -83 32 -128 2z M1826 310 c-16 -77 -26 -143 -23 -146 6 -7
19 38 37 131 10 47 20 68 51 98 34 34 42 38 81 35 42 -3 43 -4 46 -43 2 -22
-4 -80 -14 -128 -17 -88 -14 -133 4 -61 37 152 41 173 31 208 -17 60 -79 62
-145 3 l-37 -32 7 38 c4 20 3 37 -1 37 -5 0 -21 -63 -37 -140z M2115 432 c-16
-11 -37 -27 -45 -38 -8 -10 0 -6 18 9 39 31 106 38 116 11 10 -27 6 -86 -13
-171 -10 -46 -14 -83 -10 -83 14 0 49 157 49 220 0 67 -52 90 -115 52z M2384
431 c-128 -78 -113 -271 21 -271 34 0 101 35 109 57 6 14 3 14 -16 -4 -26 -24
-69 -43 -98 -43 -33 0 -80 51 -82 90 l-3 35 86 5 c104 6 139 25 139 73 0 38
-7 50 -37 66 -32 17 -84 13 -119 -8z m109 -2 c28 -15 37 -28 37 -55 0 -40 -34
-57 -125 -62 -81 -4 -85 -4 -85 16 0 25 54 90 84 102 30 12 64 12 89 -1z" transform="translate(87, 225) scale(0.25, 0.25) translate(0.000000,68.000000) scale(0.100000,-0.100000)" fill="#b5b0b0" stroke="none"/></g></g><g id="shape-71db0270-b9cf-11ec-bb1c-133376e88578"><g><path d="M1150 805 c0 -18 5 -25 20 -25 15 0 20 7 20 25 0 18 -5 25 -20 25
-15 0 -20 -7 -20 -25z M60 610 c0 -180 2 -210 15 -210 12 0 15 16 15 80 l0 80
69 0 68 0 51 -80 c29 -46 58 -80 67 -80 10 0 13 5 9 13 -5 6 -28 43 -53 81
-33 53 -41 71 -30 75 8 2 29 19 46 37 29 28 33 39 33 84 0 47 -4 56 -39 91
l-39 39 -106 0 -106 0 0 -210z m221 167 c46 -35 52 -110 13 -156 -25 -30 -28
-31 -115 -31 l-89 0 0 100 0 100 88 0 c52 -1 93 -5 103 -13z M1590 760 c0 -43
-3 -50 -20 -50 -11 0 -20 -7 -20 -15 0 -8 9 -15 20 -15 18 0 20 -8 22 -127 3
-126 3 -127 30 -142 20 -11 34 -13 54 -6 39 14 42 33 4 27 -53 -8 -60 8 -60
134 l0 114 35 0 c24 0 35 5 35 15 0 10 -11 15 -35 15 l-35 0 0 50 c0 38 -4 50
-15 50 -11 0 -15 -12 -15 -50z M5370 760 c0 -43 -3 -50 -20 -50 -11 0 -20 -7
-20 -15 0 -8 9 -15 20 -15 19 0 20 -7 20 -120 0 -107 2 -122 20 -140 21 -21
39 -24 78 -14 34 10 28 31 -8 26 -53 -8 -60 8 -60 134 l0 114 35 0 c24 0 35 5
35 15 0 10 -11 15 -35 15 l-35 0 0 50 c0 38 -4 50 -15 50 -11 0 -15 -12 -15
-50z M490 691 c-49 -26 -83 -93 -77 -150 14 -130 176 -187 261 -92 26 28 5 27
-40 -4 -44 -30 -88 -32 -131 -5 -34 20 -46 38 -57 83 l-6 27 136 0 137 0 -6
35 c-17 102 -125 155 -217 106z m130 -16 c30 -15 60 -61 60 -90 0 -13 -18 -15
-120 -15 -66 0 -120 2 -120 5 0 3 6 20 14 39 28 68 101 95 166 61z M833 689
c-90 -58 -87 -204 7 -266 52 -36 104 -29 158 20 l22 20 0 -57 c0 -69 -25 -100
-89 -111 -34 -6 -52 -2 -94 19 -28 14 -53 23 -56 21 -9 -10 23 -35 64 -51 87
-33 183 6 205 84 5 20 10 106 10 190 0 128 -2 152 -15 152 -11 0 -15 -11 -15
-36 l0 -36 -40 36 c-33 30 -48 36 -83 36 -25 0 -55 -9 -74 -21z m114 -10 c59
-22 73 -46 73 -124 0 -62 -3 -74 -23 -93 -52 -49 -126 -45 -171 9 -50 59 -28
176 37 204 39 17 48 18 84 4z M1150 555 c0 -148 1 -155 20 -155 19 0 20 7 20
155 0 148 -1 155 -20 155 -19 0 -20 -7 -20 -155z M1318 694 c-32 -17 -45 -55
-32 -93 8 -21 24 -31 88 -53 44 -15 83 -33 87 -40 40 -62 -57 -108 -144 -70
-59 26 -71 11 -14 -17 50 -24 106 -27 146 -7 26 14 51 53 51 80 0 23 -41 51
-114 76 -69 24 -71 26 -74 61 -3 30 1 37 23 47 35 16 80 15 115 -3 17 -9 31
-11 35 -5 9 15 -51 40 -97 40 -24 -1 -55 -7 -70 -16z M1830 691 c-49 -26 -83
-93 -77 -150 14 -130 176 -187 261 -92 26 28 5 27 -40 -4 -44 -30 -88 -32
-131 -5 -34 20 -46 38 -57 83 l-6 27 136 0 137 0 -6 35 c-17 102 -125 155
-217 106z m130 -16 c30 -15 60 -61 60 -90 0 -13 -18 -15 -120 -15 -66 0 -120
2 -120 5 0 3 6 20 14 39 28 68 101 95 166 61z M2120 555 c0 -131 2 -155 15
-155 12 0 15 17 15 95 0 66 5 105 15 125 15 30 61 60 90 60 8 0 15 7 15 15 0
8 -5 15 -10 15 -22 0 -69 -30 -89 -57 l-20 -28 -1 43 c0 30 -4 42 -15 42 -13
0 -15 -24 -15 -155z M2523 695 c-34 -14 -48 -43 -15 -30 55 22 76 27 106 21
42 -8 62 -31 71 -78 l7 -38 -73 6 c-64 5 -79 2 -107 -15 -45 -29 -58 -61 -42
-101 26 -62 118 -77 182 -30 16 12 30 20 31 18 35 -69 43 -59 39 49 -5 133
-15 169 -55 193 -37 23 -98 25 -144 5z m145 -141 c43 -12 21 -93 -33 -119 -49
-22 -92 -19 -120 10 -55 54 -13 115 79 115 28 0 61 -3 74 -6z M2810 555 c0
-148 1 -155 20 -155 19 0 20 7 20 108 0 105 1 109 28 135 37 36 82 50 115 38
35 -13 47 -61 47 -183 0 -83 2 -98 16 -98 14 0 16 15 13 124 -4 108 -7 128
-25 153 -35 47 -110 43 -164 -7 -18 -17 -34 -30 -36 -30 -2 0 -4 16 -4 35 0
24 -5 35 -15 35 -13 0 -15 -24 -15 -155z M3353 695 c-34 -14 -48 -43 -15 -30
55 22 76 27 106 21 42 -8 62 -31 71 -78 l7 -38 -73 6 c-64 5 -79 2 -107 -15
-45 -29 -58 -61 -42 -101 26 -62 118 -77 182 -30 16 12 30 20 31 18 35 -69 43
-59 39 49 -5 133 -15 169 -55 193 -37 23 -98 25 -144 5z m145 -141 c43 -12 21
-93 -33 -119 -49 -22 -92 -19 -120 10 -55 54 -13 115 79 115 28 0 61 -3 74 -6z
M3720 703 c-8 -3 -30 -19 -48 -36 -114 -109 -3 -304 147 -258 43 12 96 61 67
61 -9 0 -30 -10 -45 -21 -20 -14 -43 -21 -73 -21 -36 1 -48 6 -75 36 -28 30
-33 43 -33 86 0 28 7 65 16 81 30 58 128 75 169 29 20 -22 49 -27 43 -7 -3 6
-19 22 -38 35 -32 21 -93 28 -130 15z M4019 687 c-67 -44 -88 -136 -48 -207
25 -44 83 -80 129 -80 39 0 97 26 110 50 14 26 -10 32 -30 8 -21 -26 -79 -38
-120 -24 -45 15 -72 55 -77 113 -10 113 104 180 190 113 30 -24 37 -25 37 -6
0 8 -15 24 -34 35 -46 29 -113 28 -157 -2z M4352 690 c-74 -46 -96 -150 -46
-224 63 -92 190 -86 248 13 76 130 -75 288 -202 211z m122 -15 c44 -21 66 -63
66 -124 0 -41 -5 -56 -27 -81 -50 -55 -125 -56 -174 -4 -20 22 -24 36 -24 89
0 54 4 67 25 90 43 46 81 55 134 30z M4650 598 c0 -127 16 -176 61 -192 39
-13 94 1 129 34 18 17 34 30 36 30 2 0 4 -11 4 -25 0 -15 8 -29 21 -36 20 -10
21 -9 16 12 -4 13 -7 84 -7 157 0 111 -2 132 -15 132 -12 0 -15 -17 -15 -95 0
-64 -5 -105 -14 -124 -38 -73 -146 -88 -175 -25 -6 14 -11 74 -11 134 0 91 -3
110 -15 110 -12 0 -15 -19 -15 -112z M5010 555 c0 -131 2 -155 15 -155 12 0
15 18 15 104 0 97 2 107 25 135 47 55 128 62 154 12 6 -11 11 -72 11 -135 0
-96 3 -116 15 -116 13 0 15 20 15 120 0 159 -15 190 -91 190 -36 0 -64 -13
-101 -48 l-28 -26 0 37 c0 26 -4 37 -15 37 -13 0 -15 -24 -15 -155z" transform="translate(128, 174) scale(0.25, 0.25) translate(0.000000,96.000000) scale(0.100000,-0.100000)" fill="#000000" stroke="none"/></g></g><g id="shape-e7447710-b9d1-11ec-ab48-336cbce659bb"><path d="M124,198L274.02283082170663,198M274.02283082170663,174.22779161440656" style="fill: none; stroke-width: 1; stroke: rgb(239, 159, 61); stroke-opacity: 0.3;"/></g></g></g></svg>