<svg id="screenshot" viewBox="-0.7071067811865476 -0.7071067811865476 401.4142135623731 601.4142135623731" width="401.4142135623731" height="601.4142135623731" version="1.1" xmlns="http://www.w3.org/2000/svg" xmlns:xlink="http://www.w3.org/1999/xlink" style="-webkit-print-color-adjust: exact;"><g id="shape-94a4a400-b9c0-11ec-b365-d589f8d7c069" clip-path="url(#frame-clip-94a4a400-b9c0-11ec-b365-d589f8d7c069-b0a5bd60-b9d4-11ec-9826-6182e4dba519)"><defs><clipPath id="frame-clip-94a4a400-b9c0-11ec-b365-d589f8d7c069-b0a5bd60-b9d4-11ec-9826-6182e4dba519" class="frame-clip"><rect x="0" y="0" width="400" height="600"/></clipPath></defs><rect x="0" y="0" width="400" height="600" class="frame-background" style="fill: rgb(255, 255, 255); fill-opacity: 1; stroke-width: 1; stroke: rgb(0, 0, 0); stroke-opacity: 1;"/><g id="shape-e95b0ac0-b9c0-11ec-b365-d589f8d7c069"><rect rx="0" ry="0" x="27" y="27" transform="matrix(1,0,0,1,0,0)" width="345" height="103" style="fill: none; fill-opacity: 0.98; stroke-width: 1; stroke: rgb(0, 0, 0); stroke-opacity: 1; opacity: 0.95;"/></g><g id="shape-f9eed100-b9c0-11ec-b365-d589f8d7c069"><g><path d="M50 470 c0 -221 1 -230 19 -230 18 0 20 9 23 118 2 64 2 168 0 230
-3 103 -5 112 -23 112 -18 0 -19 -9 -19 -230z M1410 600 c0 -91 -9 -123 -24
-85 -9 26 -69 55 -111 55 -88 0 -151 -79 -143 -177 5 -60 27 -96 78 -130 55
-38 114 -29 173 25 l27 26 0 -27 c0 -16 8 -30 19 -37 26 -13 31 -13 31 5 0 8
-4 15 -10 15 -6 0 -10 78 -10 215 0 184 -2 215 -15 215 -12 0 -15 -18 -15
-100z m-52 -78 c47 -31 67 -121 42 -186 -13 -35 -67 -66 -113 -66 -110 0 -163
146 -86 235 42 47 101 54 157 17z M165 559 c-29 -17 -65 -51 -65 -62 0 -5 14
3 31 17 40 34 107 36 135 5 16 -18 19 -40 22 -150 3 -103 6 -129 18 -129 11 0
14 24 14 129 0 117 -2 131 -23 162 -19 29 -29 34 -67 36 -25 2 -54 -2 -65 -8z
M480 547 c-76 -50 -99 -159 -50 -230 31 -45 87 -77 134 -77 41 0 114 33 123
56 10 27 -6 27 -37 1 -40 -35 -87 -43 -133 -23 -39 16 -77 67 -77 104 0 22 1
22 140 22 l140 0 0 25 c0 40 -36 101 -73 124 -48 29 -123 28 -167 -2z m177
-41 c19 -21 33 -46 33 -61 l0 -25 -125 0 -125 0 0 24 c0 28 43 83 74 97 12 5
41 7 66 5 35 -3 51 -11 77 -40z M838 553 c-21 -8 -38 -19 -38 -24 0 -12 8 -11
57 7 82 31 153 -4 153 -77 l0 -38 -54 6 c-30 3 -71 2 -91 -1 -95 -18 -118
-128 -35 -171 52 -27 119 -14 173 33 15 14 17 13 17 -6 0 -12 8 -26 18 -31 17
-9 18 -4 15 82 -6 166 -12 185 -63 220 -31 21 -102 21 -152 0z m150 -149 c20
-6 23 -12 20 -52 -4 -60 -38 -87 -110 -87 -40 0 -53 4 -69 24 -48 59 -5 121
85 121 28 0 61 -3 74 -6z M1612 553 c-83 -41 -111 -165 -55 -242 39 -51 83
-73 140 -69 57 5 134 51 115 70 -7 7 -17 3 -31 -11 -25 -25 -62 -41 -94 -41
-55 0 -127 69 -127 122 0 16 13 18 146 18 l146 0 -7 33 c-24 113 -133 169
-233 120z m143 -23 c29 -18 41 -36 59 -92 5 -17 -5 -18 -124 -18 -120 0 -130
1 -130 19 0 26 41 83 70 98 37 19 88 16 125 -7z M1930 405 c0 -140 2 -165 15
-165 12 0 15 19 15 114 0 114 0 115 30 144 16 17 43 33 60 37 28 6 44 35 20
35 -21 0 -69 -30 -89 -56 l-21 -27 0 42 c0 30 -4 41 -15 41 -13 0 -15 -25 -15
-165z" transform="translate(173, 68) scale(0.25, 0.25) translate(0.000000,84.000000) scale(0.100000,-0.100000)" fill="#000000" stroke="none"/></g></g><g id="shape-0590b8c0-b9c1-11ec-b365-d589f8d7c069"><rect rx="0" ry="0" x="27" y="530" transform="matrix(1,0,0,1,0,0)" width="345" height="42" style="fill: none; fill-opacity: 0.98; stroke-width: 1; stroke: rgb(0, 0, 0); stroke-opacity: 1; opacity: 0.95;"/></g><g id="shape-f8454a40-b9c1-11ec-aa1f-ebca4f389c43" filter="url(#filter_b0a87c80-b9d4-11ec-9826-6182e4dba519)"><defs><filter id="filter_b0a87c80-b9d4-11ec-9826-6182e4dba519" x="-0.03983419053663494" y="-0.05828948064764471" width="1.07966838107327" height="1.1165789612952894" filterUnits="objectBoundingBox" color-interpolation-filters="sRGB"><feFlood flood-opacity="0" result="BackgroundImageFix"/><feColorMatrix in="SourceAlpha" type="matrix" values="0 0 0 0 0 0 0 0 0 0 0 0 0 0 0 0 0 0 127 0"/><feMorphology radius="2" operator="dilate" in="SourceAlpha" result="filter_09a8e3a0-b9c2-11ec-aa1f-ebca4f389c43"/><feOffset dx="0" dy="0"/><feGaussianBlur stdDeviation="2.5"/><feColorMatrix type="matrix" values="0 0 0 0 0 0 0 0 0 0 0 0 0 0 0 0 0 0 0.2 0"/><feBlend mode="normal" in2="BackgroundImageFix" result="filter_09a8e3a0-b9c2-11ec-aa1f-ebca4f389c43"/><feBlend mode="normal" in="SourceGraphic" in2="filter_09a8e3a0-b9c2-11ec-aa1f-ebca4f389c43" result="shape"/></filter></defs><rect rx="15" ry="15" x="41" y="197" transform="matrix(1,0,0,1,0,0)" width="319" height="218" style="fill: rgb(255, 255, 255); fill-opacity: 1; opacity: 1;"/></g><g id="shape-0dcc1cf1-b9c1-11ec-b365-d589f8d7c069"><g><path d="M123 698 c-26 -12 -53 -65 -53 -102 0 -21 -5 -26 -25 -26 -16 0 -25
-6 -25 -15 0 -9 9 -15 25 -15 l25 0 0 -150 c0 -127 2 -150 15 -150 13 0 15 23
15 150 l0 150 45 0 c33 0 45 4 45 15 0 11 -12 15 -46 15 l-47 0 6 36 c9 54 34
76 79 72 42 -4 54 16 16 26 -31 8 -49 7 -75 -6z M1020 625 c0 -48 -2 -55 -20
-55 -11 0 -20 -7 -20 -15 0 -8 9 -15 20 -15 19 0 20 -7 20 -114 0 -63 4 -126
10 -140 13 -35 51 -52 91 -40 38 11 35 30 -4 26 -51 -6 -57 8 -57 144 l0 124
35 0 c24 0 35 5 35 15 0 10 -11 15 -35 15 l-35 0 0 55 c0 48 -2 55 -20 55 -18
0 -20 -7 -20 -55z M309 547 c-43 -29 -79 -91 -79 -137 0 -45 37 -118 73 -144
40 -29 134 -29 174 0 129 96 70 304 -87 304 -32 0 -58 -7 -81 -23z m125 -11
c70 -29 101 -109 70 -185 -23 -58 -56 -81 -116 -81 -41 0 -54 5 -78 28 -73 74
-48 215 43 241 44 13 44 13 81 -3z M691 548 c-106 -71 -99 -239 12 -291 106
-51 227 27 227 145 0 56 -15 91 -59 132 -25 24 -42 30 -88 34 -48 3 -64 0 -92
-20z m123 -12 c130 -54 100 -267 -37 -266 -23 1 -52 6 -65 14 -92 50 -80 219
18 253 45 15 45 15 84 -1z M1279 547 c-50 -34 -79 -82 -79 -134 0 -113 87
-189 195 -169 34 7 95 49 95 67 0 16 -18 10 -43 -15 -14 -14 -42 -28 -63 -32
-63 -12 -133 39 -150 109 l-6 27 146 0 c166 0 165 -1 124 80 -44 87 -144 118
-219 67z m149 -17 c29 -18 62 -71 62 -100 0 -6 -47 -10 -130 -10 -83 0 -130 4
-130 10 0 29 33 82 62 100 42 25 94 25 136 0z M1600 405 c0 -140 2 -165 15
-165 12 0 15 19 15 114 0 114 0 115 30 144 16 17 43 33 60 37 28 6 44 35 20
35 -21 0 -69 -30 -89 -56 l-21 -27 0 42 c0 30 -4 41 -15 41 -13 0 -15 -25 -15
-165z" transform="translate(177, 540) scale(0.25, 0.25) translate(0.000000,84.000000) scale(0.100000,-0.100000)" fill="#000000" stroke="none"/></g></g><g id="shape-49edd4c1-b9c2-11ec-9fe5-b1f61c3807e4"><g><path d="M52 427 c4 -144 18 -188 69 -215 36 -19 115 -10 144 18 35 33 45 78
45 213 0 110 -1 117 -20 117 -19 0 -20 -7 -20 -130 0 -172 -13 -200 -94 -200
-22 0 -40 8 -57 26 -23 24 -24 33 -27 165 -3 132 -5 139 -24 139 -20 0 -20 -5
-16 -133z M420 452 c-26 -21 -30 -66 -9 -88 8 -7 39 -26 69 -41 44 -23 55 -33
55 -53 0 -39 -42 -54 -96 -36 -49 17 -61 13 -37 -11 9 -9 39 -18 67 -21 43 -4
53 -1 75 21 49 49 33 90 -50 128 -55 24 -64 32 -64 54 0 35 40 53 82 37 37
-14 59 -4 33 15 -27 19 -98 16 -125 -5z M673 446 c-70 -59 -60 -191 17 -231
35 -18 80 -19 114 -4 36 17 23 28 -23 22 -57 -8 -89 3 -106 37 -29 56 -24 60
76 60 l92 0 -6 47 c-10 87 -98 124 -164 69z m125 -23 c6 -9 12 -29 12 -45 l0
-28 -75 0 c-69 0 -75 2 -75 21 0 11 14 34 30 51 26 25 36 29 63 24 18 -3 38
-14 45 -23z M920 335 c0 -128 1 -135 20 -135 19 0 20 7 20 98 0 89 2 100 23
119 12 12 33 23 46 25 34 4 39 28 6 28 -14 0 -37 -11 -51 -25 -14 -14 -27 -25
-29 -25 -3 0 -5 11 -5 25 0 16 -6 25 -15 25 -13 0 -15 -22 -15 -135z M1120
335 c0 -113 2 -135 15 -135 12 0 15 18 15 98 0 90 2 100 23 120 15 15 36 22
60 22 49 0 57 -21 57 -146 0 -77 3 -94 15 -94 12 0 15 19 15 115 0 132 -11
155 -74 155 -18 0 -45 -9 -59 -20 -14 -11 -27 -20 -30 -20 -3 0 -7 9 -10 20
-3 11 -10 20 -16 20 -7 0 -11 -44 -11 -135z M1453 458 c-13 -6 -23 -17 -23
-23 0 -10 9 -9 40 1 51 18 84 10 99 -22 17 -39 15 -42 -46 -54 -97 -21 -142
-89 -90 -138 29 -28 70 -28 113 -1 l34 21 0 -21 c0 -12 6 -21 15 -21 12 0 15
19 15 110 0 104 -1 112 -25 135 -27 27 -90 33 -132 13z m127 -153 c0 -55 -28
-78 -87 -73 -37 3 -38 4 -38 43 0 39 1 40 50 57 73 25 75 24 75 -27z M1710
335 c0 -113 2 -135 15 -135 12 0 15 18 15 98 0 90 2 100 23 120 25 24 76 29
95 10 8 -8 12 -49 12 -120 0 -101 1 -108 20 -108 19 0 20 7 20 104 0 97 2 106
22 120 12 9 37 16 55 16 44 0 53 -24 53 -146 0 -77 3 -94 15 -94 12 0 15 19
15 115 0 102 -2 117 -20 135 -27 27 -78 26 -115 -4 l-29 -23 -19 23 c-23 30
-74 32 -110 4 -14 -11 -28 -20 -31 -20 -3 0 -6 9 -6 20 0 11 -7 20 -15 20 -13
0 -15 -22 -15 -135z M2203 446 c-70 -59 -60 -191 17 -231 35 -18 80 -19 114
-4 36 17 23 28 -23 22 -57 -8 -89 3 -106 37 -29 56 -24 60 76 60 l92 0 -6 47
c-10 87 -98 124 -164 69z m125 -23 c6 -9 12 -29 12 -45 l0 -28 -75 0 c-69 0
-75 2 -75 21 0 11 14 34 30 51 26 25 36 29 63 24 18 -3 38 -14 45 -23z" transform="translate(100, 269) scale(0.25, 0.25) translate(0.000000,68.000000) scale(0.100000,-0.100000)" fill="#000000" stroke="none"/></g></g><g id="shape-4153aec1-b9c2-11ec-9fe5-b1f61c3807e4"><g><path d="M52 427 c4 -144 18 -188 69 -215 36 -19 115 -10 144 18 35 33 45 78
45 213 0 110 -1 117 -20 117 -19 0 -20 -7 -20 -130 0 -172 -13 -200 -94 -200
-22 0 -40 8 -57 26 -23 24 -24 33 -27 165 -3 132 -5 139 -24 139 -20 0 -20 -5
-16 -133z M420 452 c-26 -21 -30 -66 -9 -88 8 -7 39 -26 69 -41 44 -23 55 -33
55 -53 0 -39 -42 -54 -96 -36 -49 17 -61 13 -37 -11 9 -9 39 -18 67 -21 43 -4
53 -1 75 21 49 49 33 90 -50 128 -55 24 -64 32 -64 54 0 35 40 53 82 37 37
-14 59 -4 33 15 -27 19 -98 16 -125 -5z M673 446 c-70 -59 -60 -191 17 -231
35 -18 80 -19 114 -4 36 17 23 28 -23 22 -57 -8 -89 3 -106 37 -29 56 -24 60
76 60 l92 0 -6 47 c-10 87 -98 124 -164 69z m125 -23 c6 -9 12 -29 12 -45 l0
-28 -75 0 c-69 0 -75 2 -75 21 0 11 14 34 30 51 26 25 36 29 63 24 18 -3 38
-14 45 -23z M920 335 c0 -128 1 -135 20 -135 19 0 20 7 20 98 0 89 2 100 23
119 12 12 33 23 46 25 34 4 39 28 6 28 -14 0 -37 -11 -51 -25 -14 -14 -27 -25
-29 -25 -3 0 -5 11 -5 25 0 16 -6 25 -15 25 -13 0 -15 -22 -15 -135z M1120
335 c0 -113 2 -135 15 -135 12 0 15 18 15 98 0 90 2 100 23 120 15 15 36 22
60 22 49 0 57 -21 57 -146 0 -77 3 -94 15 -94 12 0 15 19 15 115 0 132 -11
155 -74 155 -18 0 -45 -9 -59 -20 -14 -11 -27 -20 -30 -20 -3 0 -7 9 -10 20
-3 11 -10 20 -16 20 -7 0 -11 -44 -11 -135z M1453 458 c-13 -6 -23 -17 -23
-23 0 -10 9 -9 40 1 51 18 84 10 99 -22 17 -39 15 -42 -46 -54 -97 -21 -142
-89 -90 -138 29 -28 70 -28 113 -1 l34 21 0 -21 c0 -12 6 -21 15 -21 12 0 15
19 15 110 0 104 -1 112 -25 135 -27 27 -90 33 -132 13z m127 -153 c0 -55 -28
-78 -87 -73 -37 3 -38 4 -38 43 0 39 1 40 50 57 73 25 75 24 75 -27z M1710
335 c0 -113 2 -135 15 -135 12 0 15 18 15 98 0 90 2 100 23 120 25 24 76 29
95 10 8 -8 12 -49 12 -120 0 -101 1 -108 20 -108 19 0 20 7 20 104 0 97 2 106
22 120 12 9 37 16 55 16 44 0 53 -24 53 -146 0 -77 3 -94 15 -94 12 0 15 19
15 115 0 102 -2 117 -20 135 -27 27 -78 26 -115 -4 l-29 -23 -19 23 c-23 30
-74 32 -110 4 -14 -11 -28 -20 -31 -20 -3 0 -6 9 -6 20 0 11 -7 20 -15 20 -13
0 -15 -22 -15 -135z M2203 446 c-70 -59 -60 -191 17 -231 35 -18 80 -19 114
-4 36 17 23 28 -23 22 -57 -8 -89 3 -106 37 -29 56 -24 60 76 60 l92 0 -6 47
c-10 87 -98 124 -164 69z m125 -23 c6 -9 12 -29 12 -45 l0 -28 -75 0 c-69 0
-75 2 -75 21 0 11 14 34 30 51 26 25 36 29 63 24 18 -3 38 -14 45 -23z" transform="translate(100, 269) scale(0.25, 0.25) translate(0.000000,68.000000) scale(0.100000,-0.100000)" fill="#000000" stroke="none"/></g></g><g id="shape-85ff4ad0-b9c1-11ec-b365-d589f8d7c069"><rect rx="15" ry="15" x="75" y="257" transform="matrix(1,0,0,1,0,0)" width="249" height="39" style="fill: rgb(255, 255, 255); fill-opacity: 1; stroke-width: 1; stroke: rgb(44, 42, 42); stroke-opacity: 1; opacity: 0.98;"/></g><g id="shape-4fc642b0-b9c2-11ec-9fe5-b1f61c3807e4"><g><path d="M97 540 c-3 -8 -15 -62 -27 -119 -36 -167 -20 -228 62 -253 72 -21
158 24 199 105 12 22 32 91 45 153 27 131 27 124 15 124 -4 0 -18 -48 -30
-107 -36 -181 -93 -263 -182 -263 -108 0 -131 64 -89 252 12 50 19 99 17 107
-3 14 -5 14 -10 1z M493 434 c-37 -18 -62 -68 -46 -93 5 -9 40 -27 76 -40 74
-26 89 -47 62 -87 -30 -46 -88 -56 -148 -25 -20 10 -37 15 -37 10 0 -20 64
-41 112 -37 62 6 98 38 98 84 0 37 -10 45 -94 73 -42 15 -52 22 -54 44 -7 56
77 94 139 63 42 -21 49 -20 20 4 -28 24 -84 26 -128 4z M763 425 c-45 -27 -83
-91 -83 -138 0 -40 24 -92 51 -111 29 -20 81 -21 117 -2 31 16 70 56 55 56 -6
0 -14 -7 -17 -15 -9 -25 -74 -48 -113 -40 -39 7 -73 53 -73 98 l0 27 78 0
c103 0 146 20 150 71 6 74 -83 103 -165 54z m117 5 c27 -14 42 -47 35 -71 -10
-30 -64 -49 -140 -49 -74 0 -80 9 -45 65 33 53 105 79 150 55z M1030 447 c0
-1 -13 -65 -30 -142 -35 -161 -32 -145 -22 -145 5 0 17 39 27 88 9 48 24 97
31 110 8 12 10 22 5 22 -5 0 -6 15 -1 35 4 20 4 35 -1 35 -5 0 -9 -1 -9 -3z
M1114 436 c-18 -8 -35 -19 -38 -25 -4 -5 6 -4 21 4 15 8 34 15 41 15 6 0 12 5
12 10 0 12 2 12 -36 -4z M1186 310 c-16 -77 -26 -143 -23 -146 6 -6 19 38 37
129 18 91 76 142 151 135 33 -3 34 -5 37 -49 2 -25 -6 -84 -16 -132 -10 -48
-15 -87 -11 -87 5 0 11 10 14 23 3 12 12 51 20 87 22 98 20 157 -6 171 -33 17
-87 4 -132 -32 l-40 -32 7 36 c4 21 3 37 -1 37 -5 0 -21 -63 -37 -140z M1559
427 c-74 -50 -105 -138 -72 -204 10 -21 30 -44 44 -52 34 -19 90 -8 129 25
l30 26 0 -26 c0 -13 5 -28 10 -31 6 -4 10 7 10 25 0 25 16 109 45 238 3 12 1
22 -4 22 -6 0 -13 -16 -17 -35 -3 -19 -10 -33 -14 -30 -5 3 -6 -4 -3 -15 9
-33 -18 -123 -45 -153 -92 -98 -216 -10 -167 119 31 80 105 117 171 84 l39
-20 -28 25 c-36 32 -83 32 -128 2z M1826 310 c-16 -77 -26 -143 -23 -146 6 -7
19 38 37 131 10 47 20 68 51 98 34 34 42 38 81 35 42 -3 43 -4 46 -43 2 -22
-4 -80 -14 -128 -17 -88 -14 -133 4 -61 37 152 41 173 31 208 -17 60 -79 62
-145 3 l-37 -32 7 38 c4 20 3 37 -1 37 -5 0 -21 -63 -37 -140z M2115 432 c-16
-11 -37 -27 -45 -38 -8 -10 0 -6 18 9 39 31 106 38 116 11 10 -27 6 -86 -13
-171 -10 -46 -14 -83 -10 -83 14 0 49 157 49 220 0 67 -52 90 -115 52z M2384
431 c-128 -78 -113 -271 21 -271 34 0 101 35 109 57 6 14 3 14 -16 -4 -26 -24
-69 -43 -98 -43 -33 0 -80 51 -82 90 l-3 35 86 5 c104 6 139 25 139 73 0 38
-7 50 -37 66 -32 17 -84 13 -119 -8z m109 -2 c28 -15 37 -28 37 -55 0 -40 -34
-57 -125 -62 -81 -4 -85 -4 -85 16 0 25 54 90 84 102 30 12 64 12 89 -1z" transform="translate(88, 268) scale(0.25, 0.25) translate(0.000000,68.000000) scale(0.100000,-0.100000)" fill="#b5b0b0" stroke="none"/></g></g><g id="shape-37885bc0-b9c2-11ec-9fe5-b1f61c3807e4"><rect rx="15" ry="15" x="75" y="315" transform="matrix(1,0,0,1,0,0)" width="249" height="39" style="fill: rgb(255, 255, 255); fill-opacity: 1; stroke-width: 1; stroke: rgb(44, 42, 42); stroke-opacity: 1;"/></g><g id="shape-8f3ce750-b9c2-11ec-8428-e7d3e1a5b322"><g><path d="M1270 565 c0 -18 5 -25 20 -25 15 0 20 7 20 25 0 18 -5 25 -20 25
-15 0 -20 -7 -20 -25z M60 370 l0 -210 140 0 c118 0 140 2 140 15 0 13 -21 15
-125 15 l-125 0 0 195 c0 167 -2 195 -15 195 -13 0 -15 -30 -15 -210z M1920
520 c0 -43 -3 -50 -20 -50 -11 0 -20 -7 -20 -15 0 -8 9 -15 20 -15 19 0 20 -7
20 -120 0 -107 2 -122 20 -140 21 -21 39 -24 78 -14 34 10 28 31 -8 26 -53 -8
-60 8 -60 134 l0 114 35 0 c24 0 35 5 35 15 0 10 -11 15 -35 15 l-35 0 0 50
c0 38 -4 50 -15 50 -11 0 -15 -12 -15 -50z M6060 520 c0 -43 -3 -50 -20 -50
-11 0 -20 -7 -20 -15 0 -8 9 -15 20 -15 18 0 20 -8 22 -127 3 -126 3 -127 30
-142 20 -11 34 -13 54 -6 39 14 42 33 4 27 -53 -8 -60 8 -60 134 l0 114 35 0
c24 0 35 5 35 15 0 10 -11 15 -35 15 l-35 0 0 50 c0 38 -4 50 -15 50 -11 0
-15 -12 -15 -50z M465 461 c-34 -14 -74 -62 -86 -101 -22 -72 13 -150 82 -185
89 -47 209 34 209 139 0 50 -34 112 -73 136 -33 21 -96 25 -132 11z m123 -37
c53 -35 66 -137 24 -193 -44 -59 -141 -58 -184 1 -29 41 -31 120 -3 162 36 54
106 67 163 30z M800 448 c-70 -48 -89 -138 -45 -213 45 -77 136 -96 195 -40
14 14 29 25 33 25 4 0 7 -22 7 -49 0 -33 -6 -56 -20 -74 -42 -53 -134 -58
-190 -10 -34 28 -49 15 -17 -15 48 -45 116 -53 184 -23 67 31 73 53 73 251 0
144 -2 170 -15 170 -11 0 -15 -11 -15 -37 -1 -35 -2 -37 -15 -19 -44 58 -119
72 -175 34z m123 -12 c48 -20 67 -55 67 -124 0 -70 -23 -107 -73 -120 -121
-32 -205 111 -125 213 35 44 76 54 131 31z M1270 315 c0 -148 1 -155 20 -155
19 0 20 7 20 155 0 148 -1 155 -20 155 -19 0 -20 -7 -20 -155z M1400 315 c0
-148 1 -155 20 -155 19 0 20 7 20 108 0 105 1 109 28 135 37 36 82 50 115 38
35 -13 47 -61 47 -183 0 -83 2 -98 16 -98 14 0 16 15 13 124 -4 108 -7 128
-25 153 -35 47 -110 43 -164 -7 -18 -17 -34 -30 -36 -30 -2 0 -4 16 -4 35 0
24 -5 35 -15 35 -13 0 -15 -24 -15 -155z M2175 461 c-34 -14 -74 -62 -86 -101
-22 -72 13 -150 82 -185 89 -47 209 34 209 139 0 50 -34 112 -73 136 -33 21
-96 25 -132 11z m123 -37 c53 -35 66 -137 24 -193 -44 -59 -141 -58 -184 1
-29 41 -31 120 -3 162 36 54 106 67 163 30z M2593 438 c8 -18 38 -88 67 -156
l54 -122 -20 -48 c-14 -33 -26 -48 -42 -50 -26 -4 -30 -32 -4 -32 10 0 26 6
36 13 25 18 190 429 170 425 -9 -2 -36 -55 -67 -135 -29 -73 -55 -133 -58
-133 -4 0 -31 60 -62 133 -35 84 -61 133 -71 135 -15 3 -16 0 -3 -30z M2982
450 c-74 -46 -96 -150 -46 -224 63 -92 190 -86 248 13 76 130 -75 288 -202
211z m122 -15 c44 -21 66 -63 66 -124 0 -41 -5 -56 -27 -81 -50 -55 -125 -56
-174 -4 -20 22 -24 36 -24 89 0 54 4 67 25 90 43 46 81 55 134 30z M3280 371
c0 -124 6 -154 38 -186 41 -41 104 -33 163 22 l26 24 6 -29 c3 -16 14 -32 23
-36 13 -5 15 -2 10 16 -3 13 -6 83 -6 156 0 111 -2 132 -15 132 -12 0 -15 -18
-15 -97 0 -58 -5 -108 -13 -122 -31 -61 -119 -84 -161 -42 -19 19 -21 35 -25
141 -2 94 -6 120 -17 120 -11 0 -14 -21 -14 -99z M3640 315 c0 -128 2 -155 14
-155 12 0 15 23 18 113 4 148 0 197 -18 197 -11 0 -14 -29 -14 -155z M3750
463 c-19 -7 -70 -54 -70 -65 0 -4 16 4 36 17 20 14 45 25 55 25 11 0 19 7 19
15 0 15 -13 18 -40 8z M4035 452 c-51 -23 -31 -37 23 -15 78 30 142 -3 142
-75 l0 -33 -49 7 c-68 9 -114 -2 -145 -33 -33 -33 -34 -73 -2 -110 21 -24 31
-28 79 -28 42 0 63 6 86 23 35 26 41 27 41 8 0 -17 28 -41 37 -32 4 4 2 16 -5
26 -7 12 -12 58 -12 116 0 96 0 96 -34 130 -28 28 -41 34 -77 34 -24 0 -62 -9
-84 -18z m143 -138 c20 -6 23 -12 20 -47 -2 -34 -9 -45 -37 -64 -42 -29 -90
-29 -125 -2 -26 20 -35 61 -18 85 20 30 99 44 160 28z M4390 452 c-73 -38
-101 -155 -53 -221 38 -50 83 -73 136 -68 47 4 96 30 105 55 6 18 -16 14 -47
-9 -35 -26 -99 -28 -135 -4 -56 37 -69 143 -26 198 40 50 133 56 170 11 15
-17 43 -19 38 -1 -3 6 -19 22 -38 35 -41 27 -102 29 -150 4z M4712 451 c-118
-75 -84 -266 52 -288 47 -7 78 2 116 33 21 18 28 29 20 34 -7 4 -23 -3 -36
-15 -49 -46 -132 -34 -171 24 -73 108 29 249 141 196 20 -10 36 -21 36 -26 0
-5 7 -9 15 -9 22 0 18 13 -10 40 -35 33 -118 39 -163 11z M5039 447 c-46 -30
-82 -104 -74 -150 16 -86 80 -141 156 -134 84 7 139 70 139 159 0 115 -127
188 -221 125z m154 -36 c23 -22 31 -41 34 -78 9 -88 -39 -146 -120 -145 -35 1
-47 7 -74 36 -28 31 -33 43 -33 87 0 60 22 102 64 124 43 21 93 12 129 -24z
M5342 339 c3 -129 3 -131 31 -155 16 -14 41 -24 59 -24 38 0 96 27 109 51 14
26 29 24 29 -5 0 -25 26 -54 37 -42 4 4 2 16 -5 26 -8 13 -12 65 -12 150 0
109 -2 130 -15 130 -12 0 -15 -19 -15 -109 0 -104 -1 -109 -26 -135 -50 -49
-128 -52 -151 -5 -8 15 -13 67 -13 137 0 95 -2 112 -16 112 -14 0 -15 -17 -12
-131z M5700 315 c0 -131 2 -155 15 -155 12 0 15 18 15 104 0 97 2 107 25 135
50 58 134 62 155 6 6 -15 10 -76 10 -136 0 -93 2 -109 16 -109 14 0 15 17 12
129 -3 122 -4 131 -28 156 -22 24 -31 26 -73 22 -37 -3 -56 -12 -81 -36 -17
-17 -35 -31 -39 -31 -4 0 -7 16 -7 35 0 19 -4 35 -10 35 -6 0 -10 -58 -10
-155z" transform="translate(119.5, 217) scale(0.25, 0.25) translate(0.000000,72.000000) scale(0.100000,-0.100000)" fill="#000000" stroke="none"/></g></g><g id="shape-5f929a40-b9c2-11ec-9fe5-b1f61c3807e4"><g><path d="M2378 558 c-10 -46 -22 -84 -27 -86 -6 -2 -7 -10 -4 -18 3 -8 0 -42
-7 -75 -10 -46 -20 -66 -47 -89 -95 -84 -205 3 -158 126 31 80 105 117 171 84
l39 -20 -28 25 c-97 86 -261 -80 -200 -202 10 -21 30 -44 44 -52 34 -19 90 -8
129 25 l30 26 0 -26 c0 -13 5 -28 10 -31 6 -4 10 6 10 23 0 17 16 103 35 193
39 180 38 179 27 179 -4 0 -15 -37 -24 -82z M66 453 c-20 -98 -39 -186 -42
-195 -3 -10 -1 -18 4 -18 5 0 18 35 28 78 l19 77 92 5 c84 5 94 7 122 34 56
54 64 125 19 174 -19 20 -31 22 -113 22 l-92 0 -37 -177z m207 158 c59 -23 57
-124 -4 -175 -27 -23 -39 -26 -110 -26 -69 0 -79 2 -79 18 0 15 7 46 35 170 5
20 11 22 70 22 35 0 75 -4 88 -9z M439 507 c-74 -50 -105 -138 -72 -204 10
-21 30 -44 44 -52 34 -19 90 -8 129 25 l30 26 0 -26 c0 -13 5 -28 10 -31 6 -4
10 7 10 25 0 25 16 109 45 238 3 12 1 22 -4 22 -6 0 -13 -16 -17 -35 -3 -19
-10 -33 -14 -30 -5 3 -6 -4 -3 -15 9 -33 -18 -123 -45 -153 -92 -98 -216 -10
-167 119 31 80 105 117 171 84 l39 -20 -28 25 c-36 32 -83 32 -128 2z M753
510 c-32 -19 -48 -52 -41 -87 2 -12 22 -24 63 -38 77 -26 85 -31 85 -61 0 -59
-82 -90 -150 -56 -23 11 -39 15 -37 8 17 -52 167 -42 196 12 27 51 9 76 -78
107 -50 18 -56 23 -59 51 -6 57 74 92 137 61 17 -9 31 -12 31 -8 0 13 -49 31
-83 31 -18 0 -47 -9 -64 -20z M1025 521 c-36 -15 -57 -47 -53 -82 3 -29 8 -35
43 -47 89 -31 105 -41 105 -66 0 -67 -114 -99 -172 -49 -9 8 -18 10 -22 5 -3
-6 11 -18 31 -27 54 -26 120 -16 155 24 49 55 33 85 -59 115 -28 10 -57 23
-63 31 -19 23 -1 66 36 81 43 18 67 18 107 -1 l32 -16 -24 21 c-24 21 -78 26
-116 11z M1217 498 c4 -18 16 -82 27 -142 12 -60 26 -111 32 -113 6 -2 30 24
55 57 24 33 47 60 50 60 4 0 10 -22 14 -48 10 -74 20 -83 50 -47 61 72 160
265 136 265 -4 0 -18 -27 -30 -59 -21 -58 -118 -218 -126 -209 -3 3 -11 33
-18 69 -13 62 -12 66 15 126 30 68 32 73 20 73 -4 0 -15 -22 -25 -50 -10 -27
-22 -50 -26 -50 -5 0 -12 23 -16 50 -4 28 -11 50 -16 50 -12 0 -11 -14 5 -82
l14 -56 -45 -67 c-24 -37 -47 -64 -50 -61 -4 3 -52 244 -53 264 0 1 -4 2 -10
2 -5 0 -7 -14 -3 -32z M1698 510 c-97 -52 -120 -213 -37 -256 107 -55 243 71
209 195 -20 76 -94 102 -172 61z m129 -23 c34 -34 39 -93 11 -146 -30 -59 -66
-84 -119 -84 -58 0 -89 35 -89 100 0 125 121 205 197 130z M1976 513 c-8 -26
-56 -253 -56 -264 0 -5 4 -9 8 -9 4 0 16 42 26 93 10 50 21 96 24 102 7 11 13
95 7 95 -2 0 -6 -8 -9 -17z M2055 514 c-16 -8 -37 -22 -45 -31 -9 -8 0 -6 20
6 19 12 43 21 53 21 9 0 17 5 17 10 0 14 -10 12 -45 -6z" transform="translate(87.56148418199462, 326) scale(0.25, 0.25) translate(0.000000,76.000000) scale(0.100000,-0.100000)" fill="#b5b0b0" stroke="none"/></g></g><g id="shape-fcac6300-b9c3-11ec-8428-e7d3e1a5b322"><rect rx="15" ry="15" x="142" y="366.5" transform="matrix(1,0,0,1,0,0)" width="113" height="35" style="fill: rgb(237, 145, 33); fill-opacity: 0.87; stroke-width: 0.8; stroke: rgb(203, 109, 4); stroke-opacity: 1;"/></g><g id="shape-c8b386e0-b9c4-11ec-8428-e7d3e1a5b322"><g><path d="M114 719 c-53 -15 -79 -53 -79 -114 0 -65 22 -93 98 -125 67 -29 87
-47 87 -80 0 -52 -56 -72 -127 -45 -45 17 -47 17 -60 -1 -7 -10 -12 -23 -10
-29 6 -17 59 -38 108 -43 94 -9 158 34 166 111 8 69 -13 99 -104 144 -67 33
-78 42 -81 66 -6 49 13 60 90 54 60 -5 68 -4 73 14 9 27 0 37 -43 49 -43 12
-75 12 -118 -1z M377 724 c-4 -4 -7 -20 -7 -36 0 -25 3 -28 36 -28 34 0 35 1
32 33 -2 26 -8 33 -28 35 -14 2 -29 0 -33 -4z M1417 723 c-16 -4 -17 -21 -15
-221 l3 -217 35 0 35 0 3 218 c1 130 -1 217 -7 217 -5 0 -15 2 -23 4 -7 2 -21
2 -31 -1z M372 448 l3 -163 30 0 30 0 3 163 2 162 -35 0 -35 0 2 -162z M581
596 c-28 -16 -50 -52 -51 -84 0 -28 25 -79 42 -85 10 -3 9 -9 -4 -24 -21 -22
-23 -64 -6 -81 9 -9 5 -16 -16 -33 -23 -18 -27 -28 -24 -63 4 -58 45 -78 145
-74 79 4 121 25 137 70 22 61 -19 102 -111 115 -58 7 -83 19 -83 39 0 17 39
34 78 34 45 0 90 34 97 73 4 20 2 44 -4 55 -10 18 -8 21 17 24 19 2 27 9 27
23 0 19 -7 20 -110 22 -77 2 -117 -1 -134 -11z m127 -48 c7 -7 12 -24 12 -38
0 -36 -17 -50 -60 -50 -43 0 -60 14 -60 50 0 36 17 50 60 50 20 0 41 -5 48
-12z m17 -274 c8 -4 15 -17 15 -30 0 -19 -8 -25 -39 -34 -78 -21 -137 13 -104
60 14 20 21 21 64 16 27 -4 56 -9 64 -12z M900 604 c-13 -4 -15 -28 -12 -152
2 -81 5 -153 7 -160 3 -8 16 -12 32 -10 l28 3 5 119 c5 116 6 119 33 140 26
19 30 19 55 5 27 -14 27 -16 32 -139 l5 -125 30 0 30 0 3 136 c2 125 1 138
-18 162 -18 22 -30 27 -67 27 -29 0 -55 -7 -73 -20 l-29 -21 -11 21 c-10 19
-19 22 -50 14z M1590 604 c-13 -4 -15 -28 -12 -152 2 -81 5 -153 7 -160 3 -8
16 -12 32 -10 l28 3 5 119 c5 116 6 119 33 140 26 19 30 19 55 5 27 -14 27
-16 32 -139 l5 -125 30 0 30 0 3 136 c2 125 1 138 -18 162 -18 22 -30 27 -67
27 -29 0 -55 -7 -73 -20 l-29 -21 -11 21 c-10 19 -19 22 -50 14z" transform="translate(174.75743191161325, 374) scale(0.25, 0.25) translate(0.000000,88.000000) scale(0.100000,-0.100000)" fill="#ffffff" stroke="none"/></g></g><g id="shape-82a7f9c0-b9d2-11ec-ab48-336cbce659bb"><path d="M109,241L280,241" style="fill: none; stroke-width: 1; stroke: rgb(239, 159, 61); stroke-opacity: 0.3;"/></g></g></svg>