<svg id="screenshot" viewBox="-2.8284271247461903 -2.8284271247461903 405.65685424949237 205.65685424949237" width="405.65685424949237" height="205.65685424949237" version="1.1" xmlns="http://www.w3.org/2000/svg" xmlns:xlink="http://www.w3.org/1999/xlink" style="-webkit-print-color-adjust: exact;"><g id="shape-539d5594-b805-11ec-a432-25179b898222" clip-path="url(#frame-clip-539d5594-b805-11ec-a432-25179b898222-3f49cb60-b809-11ec-b0d2-419aee27ae59)"><defs><clipPath id="frame-clip-539d5594-b805-11ec-a432-25179b898222-3f49cb60-b809-11ec-b0d2-419aee27ae59" class="frame-clip"><rect x="0" y="0" width="400" height="200"/></clipPath></defs><rect x="0" y="0" width="400" height="200" class="frame-background" style="fill: rgb(255, 255, 255); fill-opacity: 1; stroke-width: 4; stroke: rgb(0, 0, 0); stroke-opacity: 1; opacity: 1;"/><g id="shape-539d5593-b805-11ec-a432-25179b898222"><path d="M14,154L296.3973620959018,154L296.3973620959018,187L160.87908775677704,187L14,187L14,154Z" style="fill: rgb(255, 255, 255); fill-opacity: 1; stroke-width: 1; stroke: rgb(0, 0, 0); stroke-opacity: 1;"/></g><g id="shape-539d559c-b805-11ec-a432-25179b898222"><g><path d="M180 710 c-50 -9 -78 -27 -100 -63 -42 -68 -18 -105 88 -136 85 -26
107 -47 98 -96 -10 -54 -53 -77 -133 -73 -46 3 -71 10 -94 27 -17 13 -30 18
-27 10 11 -33 59 -54 121 -54 73 1 120 22 142 65 35 67 6 106 -103 139 -55 16
-75 28 -84 45 -15 35 2 77 43 104 28 20 44 23 86 20 30 -3 61 -12 71 -21 10
-10 22 -14 25 -10 10 9 -30 34 -67 42 -17 4 -47 4 -66 1z M1516 703 c-18 -67
-77 -365 -73 -376 5 -13 19 35 37 126 8 39 22 70 43 95 27 32 28 34 4 13 -32
-29 -32 -30 -8 77 10 45 14 82 10 82 -4 0 -10 -8 -13 -17z M1965 698 c-3 -13
-21 -96 -40 -186 -34 -158 -44 -231 -23 -164 6 17 15 32 20 32 5 0 6 5 3 10
-14 23 17 125 48 160 27 29 27 31 5 11 -33 -29 -33 -30 -9 77 10 45 14 82 10
82 -5 0 -11 -10 -14 -22z M441 594 c-45 -24 -83 -84 -88 -142 -8 -85 51 -143
131 -128 35 7 114 65 89 66 -7 0 -16 -6 -20 -14 -12 -21 -64 -46 -95 -46 -41
0 -78 38 -85 88 l-6 42 65 0 c116 0 168 23 168 74 0 62 -88 95 -159 60z m117
-10 c16 -11 22 -25 22 -50 0 -30 -4 -37 -35 -50 -37 -15 -160 -20 -169 -6 -10
16 29 77 63 99 39 27 87 30 119 7z M741 593 c-48 -24 -91 -95 -91 -150 0 -105
75 -154 158 -103 17 11 32 23 32 26 0 4 -6 1 -14 -5 -24 -20 -76 -31 -101 -21
-82 31 -74 179 12 235 14 10 44 18 66 19 31 1 44 -5 63 -27 26 -30 29 -60 13
-122 -14 -55 -20 -115 -11 -115 4 0 18 55 31 123 13 67 26 130 29 140 2 9 -1
17 -7 17 -6 0 -11 -9 -11 -19 0 -46 -10 -49 -44 -15 -39 39 -72 43 -125 17z
M1026 593 c-15 -49 -56 -266 -52 -271 3 -2 8 1 11 9 9 27 45 195 50 237 5 43
1 56 -9 25z M1113 595 c-43 -19 -42 -25 2 -11 19 6 35 14 35 18 0 10 2 10 -37
-7z M1260 599 c-57 -23 -110 -101 -110 -161 0 -39 30 -92 61 -108 30 -17 91
-7 129 20 17 12 29 25 26 28 -3 3 -14 -2 -25 -12 -49 -44 -130 -37 -156 15
-47 89 24 210 125 213 33 0 46 -4 61 -23 20 -25 33 -24 24 1 -13 33 -84 47
-135 27z M1583 600 c-33 -13 -28 -20 6 -10 18 5 37 4 52 -4 31 -15 35 -62 15
-163 -17 -79 -20 -110 -10 -100 10 10 43 171 44 213 0 64 -43 90 -107 64z
M2024 595 c-18 -14 -17 -14 9 -5 65 23 117 -22 117 -100 0 -52 -25 -99 -72
-133 -31 -23 -100 -26 -126 -6 -10 8 -7 4 6 -8 70 -67 212 35 212 152 0 43
-23 90 -49 105 -28 15 -74 12 -97 -5z M2313 590 c-40 -24 -80 -83 -88 -131 -8
-45 14 -101 49 -124 28 -18 89 -16 109 4 7 7 0 8 -22 1 -85 -24 -143 60 -106
156 31 81 128 126 182 84 11 -8 8 -5 -5 8 -29 28 -76 29 -119 2z M2484 575
c-3 -19 -10 -33 -14 -30 -5 3 -6 -4 -3 -14 9 -35 -17 -125 -45 -156 -19 -20
-20 -24 -4 -11 22 19 22 19 22 -7 0 -14 5 -29 10 -32 6 -4 10 7 10 25 0 26 31
191 46 243 3 9 1 17 -5 17 -5 0 -13 -16 -17 -35z M2607 603 c-10 -17 -58 -264
-54 -276 5 -13 19 35 37 126 14 68 45 109 100 131 43 17 55 32 18 21 -13 -4
-41 -21 -62 -38 l-39 -30 7 36 c6 34 3 47 -7 30z" transform="translate(54, 161) scale(0.25, 0.25) translate(0.000000,84.000000) scale(0.100000,-0.100000)" fill="#000000" stroke="none"/></g></g><g id="shape-539d5596-b805-11ec-a432-25179b898222" height="24px" width="24px"><g id="shape-539d5592-b805-11ec-a432-25179b898222"><path d="M246.30115445859883,26.82543789808915L246.30115445859883,119.42774681528658L153.69884554140117,119.42774681528658L153.69884554140117,26.82543789808915L246.30115445859883,26.82543789808915ZM246.30115445859883,13.596536624203793L153.69884554140117,13.596536624203793C146.42294984076443,13.596536624203793,140.46994426751598,19.549542197452183,140.46994426751598,26.82543789808915L140.46994426751598,119.42774681528658C140.46994426751598,126.70364251592355,146.42294984076443,132.656648089172,153.69884554140117,132.656648089172L246.30115445859883,132.656648089172C253.57705015923557,132.656648089172,259.530055732484,126.70364251592355,259.530055732484,119.42774681528658L259.530055732484,26.82543789808915C259.530055732484,19.549542197452183,253.57705015923557,13.596536624203793,246.30115445859883,13.596536624203793ZZM214.1549243630575,72.20056926751613L194.31157245222948,97.79849323248402L180.156648089172,80.66706608280242L160.313296178344,106.19884554140117L239.686703821656,106.19884554140117L214.1549243630575,72.20056926751613ZZ" style="fill: rgb(205, 205, 205); fill-opacity: 1;"/></g></g><g id="shape-539d5595-b805-11ec-a432-25179b898222" height="24px" width="24px"><g id="shape-539d5591-b805-11ec-a432-25179b898222"><path fill="none" d="M20,156.5L44,156.5L44,180.5L20,180.5L20,156.5ZZ"/></g><g id="shape-539d5599-b805-11ec-a432-25179b898222"><path d="M35.5,170.5L34.710000000000036,170.5L34.42999999999995,170.23000000000002C35.40999999999997,169.08999999999992,36,167.61,36,166C36,162.41000000000008,33.09000000000003,159.5,29.5,159.5C25.909999999999968,159.5,23,162.41000000000008,23,166C23,169.58999999999992,25.909999999999968,172.5,29.5,172.5C31.110000000000014,172.5,32.59000000000003,171.91000000000008,33.73000000000002,170.93000000000006L34,171.21000000000004L34,172L39,176.99L40.49000000000001,175.5L35.5,170.5ZZM29.5,170.5C27.00999999999999,170.5,25,168.49,25,166C25,163.51,27.00999999999999,161.5,29.5,161.5C31.99000000000001,161.5,34,163.51,34,166C34,168.49,31.99000000000001,170.5,29.5,170.5ZZ" style="fill: rgb(0, 0, 0);"/></g></g><g id="shape-65b1c860-b805-11ec-a432-25179b898222" height="24px" width="24px"><g id="shape-65b39d20-b805-11ec-a432-25179b898222"><path d="M337.3973620959018,151.0981250000002C326.8173620959021,151.0981250000002,318.2306954292353,159.6847916666668,318.2306954292353,170.26479166666684C318.2306954292353,180.84479166666677,326.8173620959021,189.43145833333358,337.3973620959018,189.43145833333358C347.977362095902,189.43145833333358,356.5640287625688,180.84479166666677,356.5640287625688,170.26479166666684C356.5640287625688,159.6847916666668,347.977362095902,151.0981250000002,337.3973620959018,151.0981250000002ZZM327.94819542923574,182.30145833333358C328.7723620959018,180.57645833333356,333.79402876256836,178.88979166666684,337.3973620959018,178.88979166666684C341.00069542923575,178.88979166666684,346.04152876256876,180.57645833333356,346.84652876256837,182.30145833333358C344.2398620959025,184.37145833333352,340.9623620959021,185.5981250000002,337.3973620959018,185.5981250000002C333.8323620959018,185.5981250000002,330.55486209590185,184.37145833333352,327.94819542923574,182.30145833333358ZZM349.5873620959021,179.522291666667C346.84652876256837,176.18729166666685,340.19569542923546,175.05645833333358,337.3973620959018,175.05645833333358C334.59902876256865,175.05645833333358,327.94819542923574,176.18729166666685,325.2073620959018,179.522291666667C323.25236209590184,176.95395833333362,322.0640287625688,173.75312500000018,322.0640287625688,170.26479166666684C322.0640287625688,161.81229166666685,328.9448620959024,154.9314583333337,337.3973620959018,154.9314583333337C345.8498620959017,154.9314583333337,352.7306954292353,161.81229166666685,352.7306954292353,170.26479166666684C352.7306954292353,173.75312500000018,351.54236209590226,176.95395833333362,349.5873620959021,179.522291666667ZZM337.3973620959018,158.76479166666684C333.6790287625686,158.76479166666684,330.6890287625688,161.75479166666673,330.6890287625688,165.4731250000002C330.6890287625688,169.19145833333357,333.6790287625686,172.18145833333358,337.3973620959018,172.18145833333358C341.11569542923553,172.18145833333358,344.1056954292353,169.19145833333357,344.1056954292353,165.4731250000002C344.1056954292353,161.75479166666673,341.11569542923553,158.76479166666684,337.3973620959018,158.76479166666684ZZM337.3973620959018,168.3481250000002C335.80652876256886,168.3481250000002,334.5223620959018,167.06395833333352,334.5223620959018,165.4731250000002C334.5223620959018,163.8822916666668,335.80652876256886,162.5981250000002,337.3973620959018,162.5981250000002C338.98819542923525,162.5981250000002,340.2723620959018,163.8822916666668,340.2723620959018,165.4731250000002C340.2723620959018,167.06395833333352,338.98819542923525,168.3481250000002,337.3973620959018,168.3481250000002ZZ" style="fill: rgb(85, 85, 85); fill-opacity: 1;"/></g></g><g id="shape-9819aed0-b805-11ec-a432-25179b898222" height="24px" width="24px"><g id="shape-981ac040-b805-11ec-a432-25179b898222"><path d="M366.2296875000002,166.94802083333343L373.8117187500002,174.53005208333343L381.3937500000002,166.94802083333343L366.2296875000002,166.94802083333343ZZ" style="fill: rgb(146, 146, 146); fill-opacity: 1;"/></g></g></g></svg>